<svg width="260" height="260" viewBox="0 0 260 260" fill="none" xmlns="http://www.w3.org/2000/svg">
<g clip-path="url(#clip0)">
<path d="M130.398 258.862C201.566 258.862 259.26 201.168 259.26 130C259.26 58.8312 201.566 1.1377 130.398 1.1377C59.2292 1.1377 1.53564 58.8312 1.53564 130C1.53564 201.168 59.2292 258.862 130.398 258.862Z" fill="black"/>
<path d="M92.2793 173.096H154.861C170.507 173.096 183.308 160.295 183.308 144.65C183.308 129.004 170.507 116.203 154.861 116.203H154.577H105.934C96.9729 116.203 89.1502 111.51 84.8832 104.398C86.4478 101.838 88.439 99.7045 90.857 97.8555C95.2662 94.4419 100.529 92.7351 106.076 92.7351H168.658C176.907 92.7351 183.45 86.0502 183.45 77.943C183.45 69.8358 176.765 63.1509 168.658 63.1509H106.076C90.4303 63.1509 77.6294 75.9518 77.6294 91.5973C77.6294 107.243 90.4303 120.044 106.076 120.044H154.719H155.004C168.658 120.044 179.752 131.138 179.752 144.792C179.752 148.063 179.041 151.192 177.903 154.179C172.498 146.783 164.106 142.516 154.861 142.516H154.577H105.934C92.2793 142.516 81.1852 131.422 81.1852 117.768H77.6294C77.6294 133.413 90.4303 146.214 106.076 146.214H154.719H155.004C163.68 146.214 171.502 150.624 176.054 158.02C171.645 165.131 163.822 169.825 155.004 169.825H92.4215C84.1721 169.825 77.6294 176.51 77.6294 184.617C77.6294 192.866 84.3143 199.409 92.4215 199.409H155.004C170.649 199.409 183.45 186.608 183.45 170.963H179.894C179.894 184.617 168.8 195.711 155.146 195.711H92.5638C86.3055 195.711 81.3274 190.733 81.3274 184.475C81.043 178.074 86.1633 173.096 92.2793 173.096ZM81.043 91.455C81.043 77.8008 92.1371 66.7067 105.791 66.7067H168.373C174.632 66.7067 179.61 71.6848 179.61 77.943C179.61 84.2012 174.632 89.1793 168.373 89.1793H105.791C99.3909 89.1793 93.4171 91.1706 88.439 95.1531C86.3055 96.8598 84.4565 98.7089 82.892 100.985C81.7541 97.8555 81.043 94.7264 81.043 91.455Z" fill="white"/>
</g>
<defs>
<clipPath id="clip0">
<rect width="260" height="260" fill="white"/>
</clipPath>
</defs>
</svg>
