<svg width="96" height="96" viewBox="0 0 96 96" fill="none" xmlns="http://www.w3.org/2000/svg">
<circle cx="48" cy="48" r="48" fill="white"/>
<path d="M48.5 5C53.6607 10.1112 58.8161 15.2268 63.9663 20.3466C61.2472 23.0494 58.525 25.7505 55.7997 28.4496C53.3594 26.0143 50.9385 23.5631 48.5 21.1295C46.064 23.5648 43.6418 26.013 41.2033 28.4496C38.4782 25.7496 35.755 23.0486 33.0336 20.3466C38.1838 15.2239 43.3392 10.1084 48.5 5Z" fill="#3C3C3B"/>
<path d="M33.0362 75.2474C35.7761 72.569 38.4753 69.8537 41.2028 67.1658C43.6388 69.6011 46.064 72.0493 48.4995 74.4859C50.9398 72.0506 53.3633 69.6024 55.8018 67.1658C58.524 69.8658 61.2462 72.5658 63.9684 75.2658C58.824 80.3905 53.6678 85.507 48.5 90.6154C43.3498 85.4909 38.1624 80.3985 33.0362 75.2474Z" fill="#3C3C3B"/>
<path d="M22 31.2617C25.2899 27.9889 28.585 24.7213 31.8855 21.4587C37.4318 26.9381 42.97 32.4284 48.5 37.9294C54.0463 32.4463 59.5845 26.9561 65.1145 21.4587C68.4178 24.717 71.713 27.9819 75 31.2536V31.3311C69.4916 36.8276 63.969 42.3107 58.4321 47.7803C63.9516 53.2714 69.4742 58.7581 75 64.2403V64.302C71.713 67.5853 68.4178 70.8598 65.1145 74.1255C59.5602 68.6461 54.0513 63.1239 48.5039 57.6415C42.9496 63.1209 37.4436 68.6478 31.8893 74.1255C28.5835 70.8607 25.287 67.587 22 64.3045V64.2485C27.5169 58.7519 33.0395 53.2626 38.5679 47.7803C33.0467 42.2947 27.524 36.8107 22 31.3285V31.2617Z" fill="#1B75BC"/>
</svg>
