<svg width="72" height="72" xmlns="http://www.w3.org/2000/svg" xmlns:xlink="http://www.w3.org/1999/xlink" viewBox="0 0 544 544"><defs><style>.cls-1{fill:#0b1624;}.cls-2{fill:#0b76ff;}.cls-3{fill:#24c1ff;}.cls-4{fill:#25c1ff;}.cls-5{fill:#39fff2;}.cls-6{fill:#00e2c2;}.cls-7{fill:url(#Безымянный_градиент_11);}.cls-8{fill:url(#Безымянный_градиент_39);}.cls-9{fill:url(#Безымянный_градиент_370);}.cls-10{fill:url(#Безымянный_градиент_12);}</style><linearGradient id="Безымянный_градиент_11" x1="-24.6" y1="683.51" x2="-23.57" y2="683.51" gradientTransform="matrix(98, 0, 0, -47, 2497.75, 32364.11)" gradientUnits="userSpaceOnUse"><stop offset="0" stop-color="#fff" stop-opacity="0"/><stop offset="1" stop-color="#fff"/></linearGradient><linearGradient id="Безымянный_градиент_39" x1="-28.68" y1="685.09" x2="-27.47" y2="685.09" gradientTransform="translate(-2353.25 41328.94) rotate(180) scale(98 60)" gradientUnits="userSpaceOnUse"><stop offset="0" stop-color="#fd76fd" stop-opacity="0"/><stop offset="1" stop-color="#ff51ff"/></linearGradient><linearGradient id="Безымянный_градиент_370" x1="-28.7" y1="703.17" x2="-27.72" y2="703.17" gradientTransform="matrix(-98, 0, 0, 26, -2353.25, -18019.72)" gradientUnits="userSpaceOnUse"><stop offset="0" stop-color="#9d6eff" stop-opacity="0"/><stop offset="1" stop-color="#a18cff"/></linearGradient><linearGradient id="Безымянный_градиент_12" x1="-28.69" y1="682.8" x2="-27.57" y2="682.8" gradientTransform="translate(-2353.25 29603.78) rotate(180) scale(98 43)" gradientUnits="userSpaceOnUse"><stop offset="0" stop-color="#ae60d6" stop-opacity="0"/><stop offset="1" stop-color="#ab38e6"/></linearGradient></defs><title>Beam logo</title><g id="Слой_2" data-name="Слой 2"><g id="logo_in_dark_circle" data-name="logo in dark circle"><g id="logo_in_dark_circle-2" data-name="logo in dark circle"><circle id="circle" class="cls-1" cx="272" cy="272" r="272"/><g id="logo"><path id="Combined-Shape" class="cls-2" d="M272.25,327.21h77.53l-77.5-135V110.45L424.19,370.64H272.25Z"/><path id="Combined-Shape-2" data-name="Combined-Shape" class="cls-3" d="M272.25,327.21H194.72l77.5-135V110.45L120.31,370.64H272.25Z"/><path id="BEAM" class="cls-4" d="M164,434.94V403.2c1.81-.09,6.33-.27,9.87-.27,7.78,0,10.94,3.51,10.94,7.93a7.79,7.79,0,0,1-3.72,7.12v.09c2.37.86,4.65,3.19,4.65,7.29,0,6.71-5.3,9.85-12.38,9.85C170.24,435.21,165.91,435.12,164,434.94Zm10.33-12.81h-2.88v6a8.51,8.51,0,0,0,2.51.27c2.89,0,4.33-1.23,4.33-3.37S176.76,422.13,174.33,422.13Zm-.55-12.36a18.69,18.69,0,0,0-2.33.18v5.79h2.47c1.9,0,3.44-.77,3.44-3.1C177.36,410.73,175.59,409.77,173.78,409.77Zm50,25.26V403.11H243.1V410H231.23v5.61h10.48v6.84H231.23v5.79h12.34V435Zm53.63,0L291,403.11h6.66L311.18,435h-8l-2.7-6.7h-12.9l-2.7,6.7Zm16.67-22.57-3.68,9h7.32ZM346.41,435V403.11h7.5L364,416.56l9.5-13.45h7V435h-7.45V414.69L364,427.14H362.9l-9-12.31V435Z"/><polygon id="Triangle-5" class="cls-5" points="272.25 226.3 272.25 313.57 224.77 313.67 272.25 226.3"/><polygon id="Triangle-5-2" data-name="Triangle-5" class="cls-6" points="272.25 226.3 272.25 313.57 319.73 313.67 272.25 226.3"/><polygon id="Rectangle-5" class="cls-7" points="86.13 191.81 272.25 277.83 272.25 286.83 86.13 246.1 86.13 191.81"/><polygon id="Rectangle-5-2" data-name="Rectangle-5" class="cls-8" points="458.75 166.83 272.25 277.83 272.25 280.83 458.75 202.67 458.75 166.83"/><polygon id="Rectangle-5-3" data-name="Rectangle-5" class="cls-9" points="458.75 274.33 272.25 286.83 272.25 283.83 458.75 238.5 458.75 274.33"/><polygon id="Rectangle-5-4" data-name="Rectangle-5" class="cls-10" points="458.75 202.67 272.25 280.83 272.25 283.83 458.75 238.5 458.75 202.67"/></g></g></g></g></svg>