<svg width="96" height="96" viewBox="0 0 96 96" fill="none" xmlns="http://www.w3.org/2000/svg">
<path d="M48 0C60.7304 0 72.9394 5.05713 81.9411 14.0589C90.9429 23.0606 96 35.2696 96 48C96 60.7304 90.9429 72.9394 81.9411 81.9411C72.9394 90.9429 60.7304 96 48 96V96C35.2696 96 23.0606 90.9429 14.0589 81.9411C5.05713 72.9394 0 60.7304 0 48V48C0 35.2696 5.05713 23.0606 14.0589 14.0589C23.0606 5.05713 35.2696 0 48 0V0Z" fill="url(#paint0_linear)"/>
<path fill-rule="evenodd" clip-rule="evenodd" d="M50.01 72.42C47.0307 72.8677 44.0227 73.0983 41.01 73.11H18.24L26.67 37.11H35.97L38.01 28.5H47.31L49.26 20.16H53.79C55.35 20.16 58.05 20.16 58.56 20.16C73.29 21.51 82.56 32.79 79.17 46.53C76.23 59.19 63.9 69.72 50.01 72.42ZM51.6 47.1C52.232 46.9225 52.8135 46.5994 53.2981 46.1566C53.7826 45.7137 54.1566 45.1635 54.39 44.55C54.574 43.966 54.5749 43.3396 54.3926 42.7551C54.2102 42.1705 53.8534 41.6558 53.37 41.28C52.7541 40.8966 52.0537 40.67 51.33 40.62C50.8203 40.5933 50.3096 40.5933 49.8 40.62H39.06L34.2 61.29H43.53C45.5392 61.3618 47.5504 61.221 49.53 60.87L46.35 51.21H39.99L40.83 47.7H47.7C49.0205 47.73 50.3373 47.5477 51.6 47.16V47.1ZM41.07 31.92L39.87 37.02H51.24C52.4766 36.9387 53.7184 37.0295 54.93 37.29C55.9036 37.5006 56.7966 37.9853 57.5036 38.687C58.2106 39.3887 58.7021 40.278 58.92 41.25C59.1984 43.052 58.8489 44.895 57.93 46.47C56.3767 48.8303 53.9858 50.5135 51.24 51.18L53.94 59.49C56.7693 58.3564 59.3023 56.5914 61.3456 54.3297C63.3889 52.068 64.8885 49.3695 65.73 46.44C66.1271 44.9598 66.2209 43.4146 66.0057 41.8972C65.7906 40.3798 65.2709 38.9216 64.4778 37.6102C63.6848 36.2988 62.6349 35.1612 61.3911 34.2658C60.1473 33.3705 58.7353 32.7358 57.24 32.4C56.0109 32.1056 54.7536 31.9447 53.49 31.92H41.07ZM56.07 23.58H52.35L51.24 28.41H53.49C55.5747 28.3833 57.6504 28.6871 59.64 29.31C63.124 30.4747 66.0594 32.8774 67.8897 36.0624C69.72 39.2475 70.3179 42.9934 69.57 46.59C68.2879 51.2126 65.6823 55.3595 62.0737 58.5203C58.4652 61.6811 54.0112 63.7179 49.26 64.38C47.7116 64.6202 46.1469 64.7406 44.58 64.74H29.58L35.22 40.53H29.73L22.92 69.81C22.92 69.81 34.32 69.54 40.92 69.54C44.7701 69.5165 48.6049 69.0535 52.35 68.16C62.94 64.86 72.78 56.4 75.15 46.32C77.94 33.99 69.63 24.24 56.19 23.7L56.07 23.58Z" fill="url(#paint1_linear)"/>
<defs>
<linearGradient id="paint0_linear" x1="8.85" y1="8.64" x2="82.38" y2="82.56" gradientUnits="userSpaceOnUse">
<stop offset="0.01" stop-color="#666666"/>
<stop offset="0.03" stop-color="#626262"/>
<stop offset="0.18" stop-color="#3F3F3F"/>
<stop offset="0.33" stop-color="#232323"/>
<stop offset="0.49" stop-color="#101010"/>
<stop offset="0.64" stop-color="#040404"/>
<stop offset="0.8"/>
</linearGradient>
<linearGradient id="paint1_linear" x1="54.27" y1="59.13" x2="33.03" y2="35.46" gradientUnits="userSpaceOnUse">
<stop stop-color="#DCB37A"/>
<stop offset="0.51" stop-color="#E4C590"/>
<stop offset="1" stop-color="#F3DFB1"/>
</linearGradient>
</defs>
</svg>
