<svg width="96" height="96" viewBox="0 0 96 96" fill="none" xmlns="http://www.w3.org/2000/svg">
<path d="M96 48C96 74.5097 74.5097 96 48 96C21.4903 96 0 74.5097 0 48C0 21.4903 21.4903 0 48 0C74.5097 0 96 21.4903 96 48Z" fill="#0F3679"/>
<path d="M64.9798 73V66.14H40.4098V65.72C43.0698 64.11 45.7298 60.4 45.7298 55.29C45.7298 54.38 45.6598 53.61 45.5198 52.84H57.9798V46.47H43.4198C42.6498 44.09 41.8798 41.78 41.8798 38.91C41.8798 33.17 45.0998 30.16 50.5598 30.16C54.8998 30.16 57.9098 32.05 60.3598 35.62L66.1698 31.49C62.8098 26.24 57.8398 23.3 50.5598 23.3C40.1998 23.3 33.8298 29.25 33.8298 37.86C33.8298 41.15 34.7398 43.81 35.5798 46.47H30.8198V52.84H37.7498C37.8898 53.75 38.0298 54.8 38.0298 55.78C38.0298 59.7 36.4198 63.27 32.6398 64.95V73H64.9798Z" fill="white"/>
</svg>
