<svg xmlns="http://www.w3.org/2000/svg" width="24" height="24" viewBox="0 0 24 24">
    <g fill="none" fill-rule="evenodd">
        <circle cx="12" cy="12" r="12" fill="#31CB9E"/>
        <path fill="#FFF" d="M10.812 13.457L17.1 17.1c.204.12.224.413.034.561l-4.247 3.27c-.193.148-.48.043-.526-.2l-1.55-7.275zm-.19-9.262c.248-.192.595.03.53.339l-1.67 7.842 1.67 7.838c.065.308-.282.53-.53.34L6.348 17.26c-.22-.167-.348-.433-.348-.71V8.197c0-.277.128-.542.348-.71zm6.876 4.482c.224-.128.502.032.502.293v6.808c0 .257-.278.421-.502.293l-6.381-3.695zm-5.14-4.658c.05-.242.332-.351.529-.199l4.243 3.27c.19.148.17.44-.038.561l-6.284 3.644z"/>
    </g>
</svg>
