<svg width="96" height="96" viewBox="0 0 96 96" fill="none" xmlns="http://www.w3.org/2000/svg">
<path d="M96 48C96 74.5097 74.5097 96 48 96C21.4903 96 0 74.5097 0 48C0 21.4903 21.4903 0 48 0C74.5097 0 96 21.4903 96 48Z" fill="#0F8F62"/>
<g style="mix-blend-mode:soft-light" opacity="0.7">
<circle cx="48" cy="48" r="42" fill="url(#paint0_linear)"/>
</g>
<g style="mix-blend-mode:soft-light" opacity="0.7">
<path fill-rule="evenodd" clip-rule="evenodd" d="M48 0C21.4903 -3.4331e-06 3.4331e-06 21.4903 0 48C-2.31755e-06 74.5097 21.4903 96 48 96C74.5097 96 96 74.5097 96 48C96 21.4903 74.5097 2.31755e-06 48 0ZM48 90C71.196 90 90 71.196 90 48C90 24.804 71.196 6 48 6C24.804 6 6 24.804 6 48C6 71.196 24.804 90 48 90Z" fill="url(#paint1_linear)"/>
</g>
<path d="M58.7699 74.0001H65.6999V57.6201H71.2999V52.9301H65.6999V46.2101H71.2999V41.5201H65.6999V25.1401H59.9599V41.7301H46.6599L36.9299 25.1401H30.2799V41.5201H24.6799V46.2101H30.2799V52.9301H24.6799V57.6201H30.2799V74.0001H36.0199V57.4101H48.9699L58.7699 74.0001ZM36.0199 53.1401V34.3101H36.2299L46.8699 53.1401H36.0199ZM48.7599 46.0001H59.9599V65.6001H59.7499L48.7599 46.0001Z" fill="white"/>
<defs>
<linearGradient id="paint0_linear" x1="90" y1="90" x2="6" y2="6" gradientUnits="userSpaceOnUse">
<stop stop-color="white"/>
<stop offset="1" stop-color="white" stop-opacity="0"/>
</linearGradient>
<linearGradient id="paint1_linear" x1="0" y1="0" x2="96" y2="96" gradientUnits="userSpaceOnUse">
<stop stop-color="white"/>
<stop offset="1" stop-color="white" stop-opacity="0"/>
</linearGradient>
</defs>
</svg>
