<svg width="96" height="96" viewBox="0 0 96 96" fill="none" xmlns="http://www.w3.org/2000/svg">
<path d="M48 96C74.5097 96 96 74.5097 96 48C96 21.4903 74.5097 0 48 0C21.4903 0 0 21.4903 0 48C0 74.5097 21.4903 96 48 96Z" fill="#253A7E"/>
<path d="M49.007 60.8668C49.007 60.8668 58.9651 63.3283 66.7973 57.1745C74.6294 51.0207 74.4056 41.622 74.4056 41.622C74.4056 41.622 65.4546 38.8248 57.3987 44.7549C49.3427 50.685 49.007 60.8668 49.007 60.8668Z" fill="white"/>
<path d="M48.8951 65.567C48.8951 65.567 50.4615 72.6159 56.8391 75.525C63.2167 78.546 68.923 75.4131 68.923 75.4131C68.923 75.4131 67.8041 68.9236 61.5384 65.7908C55.2727 62.6579 48.8951 65.567 48.8951 65.567Z" fill="white"/>
<path d="M63.8882 62.5447C63.8882 62.5447 67.3567 66.3489 72.3917 66.0133C77.4267 65.6776 79.8882 61.7615 79.8882 61.7615C79.8882 61.7615 76.9791 58.0692 71.9442 58.293C66.9092 58.4049 63.8882 62.5447 63.8882 62.5447Z" fill="white"/>
<path d="M58.853 38.378C58.853 38.378 53.5943 29.6507 43.6363 28.42C33.6782 27.1892 27.3006 34.0144 27.3006 34.0144C27.3006 34.0144 31.6642 42.2941 41.5104 43.8605C51.3565 45.427 58.853 38.378 58.853 38.378Z" fill="white"/>
<path d="M62.2097 35.1337C62.2097 35.1337 66.0139 29.0918 63.5524 22.3785C61.2027 15.7771 54.8251 13.875 54.8251 13.875C54.8251 13.875 51.0209 19.2456 53.1468 25.9589C55.2727 32.6722 62.2097 35.1337 62.2097 35.1337Z" fill="white"/>
<path d="M49.4546 26.7411C49.4546 26.7411 49.6784 21.5943 45.986 18.3495C42.2937 15.1048 37.5944 15.9999 37.5944 15.9999C37.5944 15.9999 37.035 20.6992 40.7273 24.0558C44.4196 27.5244 49.4546 26.7411 49.4546 26.7411Z" fill="white"/>
<path d="M40.6154 50.4609C40.6154 50.4609 31.8882 55.7197 30.6574 65.6777C29.4266 75.6358 36.2518 82.0134 36.2518 82.0134C36.2518 82.0134 44.5315 77.6497 46.0979 67.8036C47.5525 57.9574 40.6154 50.4609 40.6154 50.4609Z" fill="white"/>
<path d="M37.2588 47.1055C37.2588 47.1055 31.2168 43.3013 24.5036 45.651C17.7903 48.0006 16.0001 54.3782 16.0001 54.3782C16.0001 54.3782 21.3707 58.1824 27.9721 56.0566C34.7973 53.9307 37.2588 47.1055 37.2588 47.1055Z" fill="white"/>
<path d="M28.8671 59.86C28.8671 59.86 23.7203 59.6363 20.4755 63.3286C17.2308 67.0209 18.1259 71.7202 18.1259 71.7202C18.1259 71.7202 22.8252 72.2796 26.1818 68.5873C29.6504 64.895 28.8671 59.86 28.8671 59.86Z" fill="white"/>
</svg>
