<svg width="109" height="109" viewBox="0 0 109 109" fill="none" xmlns="http://www.w3.org/2000/svg">
<circle cx="54.5" cy="54.5" r="54.5" fill="white"/>
<path d="M83.62 50.3242C83.6953 50.2295 83.792 50.1539 83.902 50.1037C84.0121 50.0534 84.1325 50.0299 84.2533 50.035L84.3213 50.0119C84.4471 49.915 84.5772 49.8225 84.7088 49.7328C83.4364 43.258 80.26 37.3105 75.5865 32.6522C62.5732 19.6461 41.4932 19.9353 28.4871 32.9413C15.4811 45.9474 16.7824 67.613 29.7885 80.6191C42.7945 93.6251 62.5805 92.7648 75.5865 79.7515C77.0573 78.2799 78.3875 76.6742 79.5599 74.9554C79.1334 74.1811 78.7656 73.3759 78.4595 72.5465C77.6347 70.2787 77.2542 67.8732 77.339 65.4615C77.1179 63.8535 77.2008 62.2182 77.5833 60.6408C77.608 60.5322 77.6575 60.4308 77.7279 60.3444C77.7438 60.2721 77.7583 60.1998 77.7771 60.129C77.9073 59.6644 78.0963 59.2183 78.3395 58.8016C78.4669 58.3005 78.6411 57.8125 78.8601 57.3441C79.1258 56.3928 79.4907 55.472 79.9488 54.5969C80.0602 54.3785 80.1831 54.1515 80.3176 53.9202C80.3488 53.7676 80.4315 53.6303 80.5518 53.5312C81.3196 52.2935 82.3708 51.0182 83.62 50.3242ZM65.601 69.7617C62.9184 72.4443 59.5006 74.2711 55.7797 75.0112C52.0588 75.7514 48.2021 75.3715 44.6971 73.9197C41.1921 72.4679 38.1964 70.0093 36.0887 66.8549C33.981 63.7005 32.856 59.992 32.856 56.1982C32.856 52.4045 33.981 48.6959 36.0887 45.5415C38.1964 42.3871 41.1921 39.9286 44.6971 38.4768C48.2021 37.025 52.0588 36.6451 55.7797 37.3852C59.5006 38.1253 62.9184 39.9522 65.601 42.6348C67.3822 44.416 68.7951 46.5305 69.759 48.8577C70.723 51.185 71.2192 53.6793 71.2192 56.1982C71.2192 58.7172 70.723 61.2115 69.759 63.5387C68.7951 65.8659 67.3822 67.9805 65.601 69.7617Z" fill="url(#paint0_linear)"/>
<path d="M87.8768 39.2011C88.7373 38.7874 89.6728 38.5525 90.6267 38.5107C91.5806 38.4689 92.533 38.6209 93.4264 38.9577C94.3199 39.2945 95.1357 39.809 95.8246 40.4701C96.5135 41.1312 97.0612 41.9252 97.4344 42.804C97.8077 43.6828 97.9989 44.6282 97.9964 45.583C97.9939 46.5378 97.7977 47.4821 97.4198 48.3589C97.0419 49.2358 96.49 50.0268 95.7976 50.6843C95.1053 51.3417 94.2867 51.8519 93.3915 52.184V52.1984C89.6344 53.7752 86.4765 56.5067 84.3751 59.9976C82.2736 63.4884 81.3377 67.5575 81.7027 71.6157L67.7337 72.7724C66.9948 64.2849 69.3849 55.5241 75.2944 48.481C78.6889 44.429 83.003 41.2473 87.8768 39.2011Z" fill="url(#paint1_linear)"/>
<path d="M74.5815 46.3257L74.5974 46.304C74.6027 46.2971 74.6076 46.2899 74.6119 46.2823C75.6906 44.7517 77.3332 43.7122 79.1784 43.3927C81.0235 43.0731 82.92 43.4996 84.4506 44.5783C85.9813 45.6571 87.0208 47.2997 87.3403 49.1448C87.6599 50.9899 87.2334 52.8864 86.1547 54.4171C83.967 57.3538 83.351 59.8494 83.218 61.6467C83.0734 63.6565 83.1486 63.7751 83.0185 66.7566C82.9187 69.0585 82.2507 71.0408 81.6824 72.0992C80.0066 75.2166 73.2961 75.153 69.1029 71.1406C68.8629 70.6712 68.6253 70.1815 68.3901 69.6715C68.1173 69.0797 67.8652 68.5013 67.6339 67.9364C67.6209 67.8902 67.6787 68.1418 67.6339 67.9364C67.5687 67.6314 67.556 67.3175 67.5963 67.0082C67.6165 66.7942 67.6165 66.7942 67.6527 66.2187C67.7308 64.9564 67.7727 63.551 68.2672 61.4471C68.3698 60.996 68.4812 60.5059 68.6735 59.7916C69.0885 58.2647 69.5541 56.959 70.131 55.341C70.1382 55.3396 72.2001 49.2176 74.5815 46.3257Z" fill="url(#paint2_linear)"/>
<path d="M21.1158 44.9434C19.9475 48.0679 19.2545 51.35 19.0597 54.6802C19.0452 55.0749 19.0264 55.4682 19.0091 55.8658C18.8175 64.0689 21.6608 72.0539 26.9937 78.2898C32.3267 84.5256 39.7738 88.5734 47.9072 89.657C49.4977 89.7163 52.9882 90.0821 56.4049 89.6338C60.2771 89.1263 64.048 87.7802 64.8144 87.5185C65.599 87.2004 66.374 86.8514 67.1394 86.4716C68.834 85.5506 71.3557 83.8935 72.9043 82.8134C73.5492 82.3652 74.6264 81.421 75.854 80.1934C78.2021 77.8292 80.192 75.1345 81.7605 72.1946C82.1857 71.2336 82.3699 70.1834 82.297 69.135C82.0338 65.7588 78.9265 62.7556 75.7441 62.5388C74.4534 62.4475 73.1624 62.7128 72.0124 63.3057C70.8623 63.8986 69.8973 64.7962 69.223 65.9005C68.454 66.9825 67.6038 68.0043 66.6796 68.9572C65.8352 69.8247 61.9486 73.7128 57.339 75.1746C49.3329 77.718 41.4122 72.251 40.3754 71.515C36.2271 69.2059 21.1158 44.9434 21.1158 44.9434Z" fill="url(#paint3_linear)"/>
<path d="M84.969 34.3372C88.652 34.3372 91.6376 31.3515 91.6376 27.6686C91.6376 23.9856 88.652 21 84.969 21C81.2861 21 78.3005 23.9856 78.3005 27.6686C78.3005 31.3515 81.2861 34.3372 84.969 34.3372Z" fill="url(#paint4_linear)"/>
<path d="M67.5428 67.8256C67.524 67.8531 67.5356 67.6333 67.498 67.6811C63.8514 72.6145 58.6533 74.3323 57.8103 74.5983C57.5559 74.6779 54.8448 75.4659 52.1582 75.4659C48.5867 75.4822 45.0816 74.501 42.0376 72.6329C38.9936 70.7647 36.5316 68.0838 34.9289 64.8921C33.3262 61.7003 32.6465 58.1245 32.9662 54.5673C33.2859 51.0101 34.5925 47.6128 36.7387 44.758C38.8849 41.9032 41.7855 39.7044 45.1138 38.409C48.4422 37.1137 52.0661 36.7733 55.5775 37.4262C59.0888 38.0792 62.3481 39.6995 64.9884 42.1047C67.6286 44.5099 69.5449 47.6045 70.5214 51.04C70.5402 51.105 70.9002 52.6435 71.0347 52.817C71.1793 52.431 71.2747 52.2386 71.4425 51.8598C71.6102 51.481 71.8141 50.8477 72.0367 50.4992C72.0363 50.4958 72.0363 50.4924 72.0367 50.4891L72.3823 49.7199C72.3823 49.7199 72.3635 49.6837 72.1726 48.8827C72.0136 48.2233 72.002 48.1481 71.9977 48.1279C69.8751 35.693 59.0177 26.2526 45.9871 26.3148C42.5375 26.3314 39.1251 27.0274 35.9446 28.3629C32.7641 29.6985 29.8777 31.6474 27.4505 34.0985C25.0232 36.5495 23.1024 39.4547 21.798 42.6481C20.4935 45.8414 19.8308 49.2605 19.8477 52.71C19.9215 68.4966 34.2086 78.9159 46.2372 78.8522C58.1921 78.7886 65.9465 69.8037 67.1336 68.3606" fill="url(#paint5_linear)"/>
<defs>
<linearGradient id="paint0_linear" x1="85.3366" y1="56.4929" x2="19.3599" y2="56.4929" gradientUnits="userSpaceOnUse">
<stop offset="0.09" stop-color="#6DC1D6"/>
<stop offset="0.31" stop-color="#72C6D7"/>
<stop offset="0.61" stop-color="#589AC5"/>
<stop offset="1" stop-color="#3864AF"/>
</linearGradient>
<linearGradient id="paint1_linear" x1="80.9598" y1="75.3632" x2="87.4004" y2="38.235" gradientUnits="userSpaceOnUse">
<stop offset="0.47" stop-color="#FFDF7F"/>
<stop offset="0.57" stop-color="#FFBE6B"/>
<stop offset="0.69" stop-color="#FF9E58"/>
<stop offset="0.8" stop-color="#FF884A"/>
<stop offset="0.91" stop-color="#FF7A42"/>
<stop offset="1" stop-color="#FF753F"/>
</linearGradient>
<linearGradient id="paint2_linear" x1="89.0157" y1="57.3455" x2="72.1926" y2="61.1742" gradientUnits="userSpaceOnUse">
<stop offset="0.01" stop-color="#E670A7"/>
<stop offset="0.12" stop-color="#CB65A2"/>
<stop offset="0.31" stop-color="#A2559B"/>
<stop offset="0.5" stop-color="#824895"/>
<stop offset="0.68" stop-color="#6C3F90"/>
<stop offset="0.85" stop-color="#5E3A8E"/>
<stop offset="1" stop-color="#59388D"/>
</linearGradient>
<linearGradient id="paint3_linear" x1="25.3379" y1="76.5613" x2="71.8198" y2="49.725" gradientUnits="userSpaceOnUse">
<stop stop-color="#15ADFF"/>
<stop offset="0.06" stop-color="#40A3D4"/>
<stop offset="0.13" stop-color="#6D99A7"/>
<stop offset="0.21" stop-color="#949080"/>
<stop offset="0.3" stop-color="#B5885F"/>
<stop offset="0.38" stop-color="#D08244"/>
<stop offset="0.48" stop-color="#E57D2F"/>
<stop offset="0.59" stop-color="#F47A20"/>
<stop offset="0.72" stop-color="#FC7818"/>
<stop offset="0.92" stop-color="#FF7715"/>
</linearGradient>
<linearGradient id="paint4_linear" x1="81.1388" y1="33.1284" x2="88.7993" y2="22.2088" gradientUnits="userSpaceOnUse">
<stop stop-color="#55398D"/>
<stop offset="1" stop-color="#C05B9D"/>
</linearGradient>
<linearGradient id="paint5_linear" x1="19.8319" y1="52.5822" x2="72.37" y2="52.5805" gradientUnits="userSpaceOnUse">
<stop stop-color="#A3D6D9"/>
<stop offset="0.52" stop-color="#34A4DD"/>
<stop offset="0.56" stop-color="#349DD8"/>
<stop offset="0.74" stop-color="#367EC2"/>
<stop offset="0.89" stop-color="#386BB4"/>
<stop offset="1" stop-color="#3864AF"/>
</linearGradient>
</defs>
</svg>
