<svg width="65" height="65" viewBox="0 0 65 65" fill="none" xmlns="http://www.w3.org/2000/svg">
<g clip-path="url(#clip0)">
<path d="M13.5461 3.98379L30.01 23.2741L41.0554 16.7741C41.0554 16.7741 27.7176 -1.04847 24.1747 0.209598C20.8403 1.46766 13.5461 3.98379 13.5461 3.98379Z" fill="black"/>
<path d="M41.4722 16.7742C41.4722 16.7742 43.973 12.371 45.2234 6.5C45.2234 6.5 57.7276 11.5323 52.9343 24.1129L41.4722 16.7742Z" fill="black"/>
<path d="M52.9343 24.1131L53.9763 37.3228L58.7696 36.6938C58.7696 36.6938 60.02 36.2744 59.8116 33.968C59.6032 31.4519 59.1864 26.2099 59.1864 26.2099C59.1864 26.2099 59.3948 24.9518 56.4772 24.5325C52.9343 23.9035 52.9343 24.1131 52.9343 24.1131Z" fill="black"/>
<path d="M53.9767 37.3228L44.3901 45.0808L48.7666 53.6776C48.7666 53.6776 49.8086 57.0324 52.9347 53.2582C55.8523 49.484 57.1027 48.855 56.8943 46.5486C56.6859 44.2421 56.0607 38.7905 53.9767 37.3228Z" fill="black"/>
<path d="M44.1816 45.0804L31.0522 39.2095L19.59 62.4837C19.59 62.4837 18.7564 64.1611 21.674 64.3708C24.5916 64.7901 29.3849 65.8385 31.8858 63.3224C34.3866 61.0159 44.1816 45.0804 44.1816 45.0804Z" fill="black"/>
<path d="M31.0523 39L29.8019 23.4839L1.45903 25.371C1.45903 25.371 -0.208198 25.5807 0.000205707 28.7258C0.208609 32.9194 0.625416 37.5323 0.625416 37.5323C0.625416 37.5323 0.417013 39.4194 4.16827 39.629C7.91953 39.8387 30.6355 39.8387 31.0523 39Z" fill="black"/>
</g>
<defs>
<clipPath id="clip0">
<rect width="65" height="65" fill="black"/>
</clipPath>
</defs>
</svg>
