<svg width="96" height="96" viewBox="0 0 96 96" fill="none" xmlns="http://www.w3.org/2000/svg">
<mask id="mask0" mask-type="alpha" maskUnits="userSpaceOnUse" x="0" y="0" width="96" height="96">
<circle cx="48" cy="48" r="48" fill="#C4C4C4"/>
</mask>
<g mask="url(#mask0)">
<circle cx="48" cy="48" r="48" fill="#F8F8F8"/>
<path d="M57.5596 51.621L72.2502 36.976C72.796 36.4322 73.2288 35.7858 73.5235 35.0739C73.8182 34.362 73.969 33.5989 73.9673 32.8284L73.9922 20.9913C73.9908 20.3841 73.7562 19.8005 73.3369 19.3613L45.1543 47.4817C44.6065 48.0246 44.1717 48.6707 43.875 49.3826C43.5783 50.0944 43.4255 50.858 43.4255 51.6293C43.4255 52.4005 43.5783 53.1641 43.875 53.876C44.1717 54.5878 44.6065 55.2339 45.1543 55.7768L65.0252 75.5855C65.5698 76.1274 66.2159 76.5568 66.9265 76.8491C67.6371 77.1413 68.3983 77.2907 69.1666 77.2888C69.935 77.2869 70.6954 77.1336 71.4046 76.8378C72.1137 76.542 72.7576 76.1094 73.2995 75.5648C73.8415 75.0201 74.2708 74.374 74.5631 73.6634C74.8553 72.9528 75.0048 72.1916 75.0028 71.4233C75.0009 70.6549 74.8477 69.8945 74.5519 69.1854C74.256 68.4763 73.8235 67.8323 73.2788 67.2904L57.5596 51.621Z" fill="#008C62"/>
<path d="M71.694 18.7252H27.4272C23.8479 18.7252 21.2059 21.4294 21.2059 25.1207V71.3037C21.1959 72.0884 21.3431 72.8672 21.6389 73.5941C21.9347 74.321 22.3731 74.9813 22.9282 75.536C23.4834 76.0908 24.144 76.5287 24.8711 76.824C25.5982 77.1193 26.3771 77.266 27.1618 77.2554C27.9471 77.2689 28.7271 77.1241 29.4553 76.8298C30.1835 76.5355 30.845 76.0976 31.4003 75.5422C31.9557 74.9868 32.3936 74.3253 32.6879 73.5971C32.9823 72.8689 33.127 72.089 33.1135 71.3037V30.1185H62.5611L73.3448 19.3888C73.1288 19.1723 72.8712 19.0018 72.5874 18.8877C72.3037 18.7737 71.9998 18.7184 71.694 18.7252Z" fill="#00E6A0"/>
</g>
</svg>
