<svg width="96" height="96" viewBox="0 0 96 96" fill="none" xmlns="http://www.w3.org/2000/svg">
<circle cx="48" cy="48" r="48" fill="#F9D64A"/>
<path d="M93.905 61.9813H87.7556L92.9955 64.6734C92.7446 65.3521 92.4799 66.022 92.2014 66.6818L83.0501 61.9813L80.2791 60.5575C80.338 60.3719 80.3957 60.185 80.4522 59.998H94.4645C94.2939 60.6604 94.107 61.3215 93.905 61.9813Z" fill="white"/>
<path d="M95.3526 40.1855L82.098 40.0425L80.269 40.0237C80.2351 39.9133 80.1987 39.8017 80.1611 39.6913C80.136 39.6147 80.1109 39.5395 80.0846 39.463C80.0231 39.276 79.9579 39.0904 79.8901 38.906L93.3091 32.1934C93.5324 32.8306 93.7419 33.4729 93.9376 34.1202L86.3519 37.9149L94.9399 38.0065C95.0942 38.7291 95.2322 39.4554 95.3526 40.1855Z" fill="white"/>
<path d="M90.2533 70.7594L84.7713 68.9718L88.8922 73.1278C88.5071 73.7563 88.1094 74.3722 87.698 74.9781L80.2979 67.5141L78.282 65.4806C78.2883 65.4681 78.2933 65.4568 78.2995 65.4442C78.3447 65.3552 78.3886 65.2648 78.4325 65.1745C78.4764 65.0855 78.5191 64.9951 78.563 64.9048C78.568 64.8923 78.5743 64.8797 78.5805 64.8672L91.1653 68.9705C90.873 69.5764 90.5682 70.1723 90.2533 70.7594Z" fill="white"/>
<path d="M82.1344 81.744C81.6552 82.2282 81.166 82.7012 80.6679 83.1628L71.8591 74.354C71.9545 74.2612 72.0486 74.1671 72.1414 74.0718C72.2029 74.0103 72.2631 73.9488 72.322 73.8873C72.6432 73.5562 72.9568 73.22 73.2654 72.875L82.1344 81.744Z" fill="white"/>
<path d="M85.4676 78.0036C85.0399 78.538 84.602 79.0611 84.153 79.5741L75.1484 70.5696C75.2475 70.4367 75.3466 70.3024 75.4445 70.167C75.5649 70.0014 75.6828 69.8333 75.7995 69.6652C75.8836 69.546 75.9663 69.4256 76.0479 69.3039C76.0491 69.3039 76.0491 69.3026 76.0504 69.3014C76.1457 69.1584 76.2411 69.0154 76.3352 68.8711L85.4676 78.0036Z" fill="white"/>
<path d="M77.1028 86.162C76.5546 86.5784 75.9976 86.9836 75.4318 87.3763L66.6418 78.5863C66.8012 78.4809 66.9592 78.3743 67.116 78.2676C67.3795 78.087 67.6404 77.9038 67.9001 77.7157C67.9101 77.7094 67.9201 77.7019 67.9302 77.6931C68.0657 77.5952 68.2011 77.4961 68.3354 77.3945L77.1028 86.162Z" fill="white"/>
<path d="M95.9974 48.2793C95.9936 48.9768 95.9748 49.6755 95.9384 50.3755H81.8759C81.8772 50.3228 81.8772 50.2714 81.8759 50.2187C81.8759 50.1045 81.8747 49.9891 81.8734 49.875C81.8722 49.8097 81.8709 49.7445 81.8696 49.6793V49.6605C81.8671 49.53 81.8646 49.4008 81.8596 49.2703C81.8558 49.116 81.8496 48.9617 81.842 48.8087C81.842 48.7924 81.8421 48.7748 81.8395 48.7585C81.8345 48.628 81.827 48.4976 81.8195 48.3684C81.8182 48.3383 81.817 48.3081 81.8145 48.2793H95.9974Z" fill="white"/>
<path d="M95.5295 54.6738C95.4304 55.3726 95.3163 56.0725 95.1846 56.7713H81.2488C81.2826 56.5969 81.3153 56.4225 81.3466 56.2469C81.378 56.0738 81.4081 55.9007 81.4369 55.7263C81.4683 55.5382 81.4972 55.3512 81.5235 55.1631C81.5473 55 81.5699 54.8369 81.5912 54.6738H95.5295Z" fill="white"/>
<path d="M67.116 78.2668C67.3794 78.0874 67.6403 77.903 67.9 77.7148C67.6403 77.903 67.3794 78.0862 67.116 78.2668Z" fill="white"/>
<path d="M81.8696 49.6786V49.6598C81.8671 49.5293 81.8646 49.4001 81.8596 49.2696C81.8558 49.1153 81.8496 48.961 81.842 48.808C81.842 48.7917 81.842 48.7741 81.8395 48.7578C81.8345 48.6273 81.827 48.4969 81.8195 48.3677C81.8182 48.3376 81.8169 48.3074 81.8144 48.2786C81.7555 47.3089 81.6551 46.3455 81.5146 45.3908C81.4833 45.1763 81.4506 44.9631 81.4143 44.7511C81.3917 44.6156 81.3679 44.4813 81.344 44.3471C81.344 44.3434 81.3428 44.3383 81.3415 44.3346C81.3252 44.2392 81.3076 44.1452 81.2888 44.0511C81.265 43.9181 81.2386 43.7851 81.211 43.6522C81.1885 43.533 81.1634 43.4138 81.1383 43.2946C80.9024 42.1882 80.6127 41.0968 80.2689 40.023C80.2351 39.9126 80.1987 39.801 80.1611 39.6906C80.136 39.614 80.1109 39.5388 80.0845 39.4623C80.0231 39.2753 79.9578 39.0897 79.8901 38.9053C79.3996 37.5342 78.8213 36.1957 78.1589 34.8985L80.9664 34.0367L92.6592 30.444C92.4021 29.7904 92.1299 29.1431 91.8438 28.5008L84.1327 30.8692L90.0751 24.9268C89.7276 24.2921 89.3663 23.6661 88.9899 23.0477L79.8525 32.1839L77.8064 34.2299C77.2858 33.2615 76.7176 32.3181 76.1029 31.4036L87.1961 20.3104C86.7896 19.7334 86.3694 19.1639 85.9366 18.6044L74.8635 29.6775C73.9791 28.5234 73.0182 27.422 71.9832 26.3845L83.1015 15.2663C82.6273 14.7544 82.1393 14.2539 81.6401 13.7622L70.4566 24.9444C69.7315 24.3021 68.9776 23.6887 68.1923 23.1066L79.5087 11.7889C78.9806 11.3298 78.4412 10.8807 77.8905 10.4416L66.441 21.8923C65.5504 21.314 64.6258 20.7758 63.6699 20.2778L65.504 18.4438L75.374 8.57246C74.7895 8.16727 74.1936 7.77337 73.5877 7.39327L66.771 14.2113L69.4994 5.09385C68.8697 4.77898 68.2299 4.47665 67.5813 4.18813L63.6461 17.3361L62.8834 19.8827C61.8083 19.357 60.6944 18.8841 59.544 18.4676C59.0611 18.292 58.5768 18.1289 58.0914 17.9771L59.5591 15.0743L65.5002 3.31879C65.1226 3.16951 64.7413 3.0265 64.3574 2.88725C64.0751 2.78439 63.7916 2.68529 63.5081 2.58869L59.5591 10.4052V1.4233C58.8578 1.24768 58.1553 1.08836 57.4528 0.946606V17.784C56.4932 17.5042 55.531 17.2684 54.5663 17.0764V0.454858C53.8638 0.357011 53.1613 0.274216 52.4601 0.208984V16.7277C50.9711 16.527 49.482 16.4291 48.003 16.4291H47.9992C47.85 16.4291 47.7007 16.4304 47.5514 16.4329C47.4987 16.4329 47.446 16.4342 47.3933 16.4354C47.219 16.4379 47.0446 16.4429 46.8702 16.448C46.7197 16.453 46.5692 16.4592 46.4186 16.4668C46.2606 16.4743 46.1012 16.4831 45.9432 16.4931C45.9269 16.4931 45.9106 16.4944 45.8943 16.4956C44.9045 16.5583 43.9222 16.6637 42.9488 16.8118C42.7807 16.8368 42.6126 16.8644 42.4445 16.892C42.4219 16.8945 42.4006 16.8983 42.3805 16.9033C42.0531 16.9585 41.7282 17.0175 41.4033 17.0827C41.3644 17.0902 41.3243 17.0978 41.2854 17.1065C41.1373 17.1379 40.9893 17.168 40.8425 17.2006C39.8791 17.4089 38.9257 17.6598 37.9874 17.9521C37.8758 17.9859 37.7629 18.0223 37.6512 18.0587C37.5383 18.0938 37.4267 18.1314 37.315 18.1678C35.7984 18.6734 34.3194 19.2843 32.8905 19.9968C32.8604 20.0106 32.8316 20.0257 32.8015 20.042C32.656 20.1147 32.5104 20.1888 32.3662 20.264C32.3198 20.2866 32.2746 20.3104 32.2282 20.3355C32.1592 20.3719 32.0914 20.4083 32.0237 20.4447C31.9572 20.4798 31.8907 20.5149 31.8255 20.5513C30.916 21.0443 30.0291 21.5799 29.1673 22.1557C29.0281 22.2486 28.8901 22.3427 28.7521 22.438C28.6229 22.5258 28.4949 22.6161 28.3682 22.7065C28.2101 22.8181 28.0533 22.931 27.8965 23.0477C27.7736 23.138 27.6507 23.2296 27.529 23.3211C26.3247 24.2319 25.1794 25.2267 24.1005 26.298C23.7443 26.6517 23.3955 27.0143 23.0556 27.3856C22.954 27.496 22.8536 27.6076 22.752 27.7193C22.7507 27.7205 22.7507 27.7218 22.7507 27.7218C22.1185 28.4268 21.5164 29.1594 20.9431 29.9208C20.8628 30.0275 20.7825 30.1354 20.7035 30.2432C20.6658 30.2934 20.6295 30.3449 20.5918 30.3963C20.5078 30.5117 20.4237 30.6284 20.3422 30.745C20.3234 30.7714 20.3058 30.7965 20.287 30.8228C20.208 30.9345 20.1302 31.0474 20.0524 31.1615C20.0323 31.1916 20.0123 31.2205 19.9922 31.2493C19.9169 31.361 19.8404 31.4739 19.7664 31.5868C19.7501 31.6106 19.735 31.6344 19.7187 31.6583C19.1228 32.564 18.5671 33.5036 18.054 34.477C17.98 34.6175 17.906 34.7593 17.8345 34.9023C17.7881 34.9914 17.7429 35.0817 17.699 35.1708C17.5824 35.4041 17.4695 35.6387 17.3591 35.8758C16.9188 36.8103 16.5186 37.7725 16.1598 38.7623C16.0394 39.0934 15.9252 39.4246 15.8161 39.7558C15.7659 39.9101 15.7157 40.0644 15.6681 40.2187C15.6329 40.3303 15.5991 40.442 15.5652 40.5549C15.4987 40.7732 15.436 40.9914 15.3745 41.2085C15.1537 41.9963 14.9631 42.7866 14.8025 43.5769C14.8012 43.5807 14.8012 43.5832 14.8 43.5869C14.7686 43.7412 14.7385 43.8968 14.7097 44.0511C14.652 44.3521 14.5993 44.6545 14.5516 44.9555C14.5378 45.0383 14.524 45.1199 14.5127 45.2027C14.4939 45.3193 14.4763 45.436 14.46 45.5527C14.2518 47.0141 14.1414 48.4743 14.1251 49.9257C14.1201 50.2694 14.1213 50.6119 14.1288 50.9531C14.1301 51.061 14.1326 51.1689 14.1364 51.2768C14.1389 51.3846 14.1426 51.4925 14.1477 51.6004C14.1514 51.7008 14.1552 51.8024 14.1602 51.9027C14.2091 52.9314 14.3057 53.9538 14.4475 54.9674C14.4638 55.0878 14.4813 55.2082 14.5002 55.3287C14.5328 55.552 14.5679 55.774 14.6068 55.996C14.6294 56.1278 14.6532 56.2607 14.677 56.3924C14.7109 56.5768 14.746 56.7612 14.7837 56.9444C15.0095 58.0709 15.293 59.1836 15.6317 60.2775C15.6605 60.3766 15.6919 60.4744 15.7233 60.5723C16.1987 62.0626 16.7758 63.519 17.4507 64.9278C17.5184 65.0695 17.5874 65.2113 17.6576 65.3518C18.2686 66.5862 18.956 67.7842 19.7137 68.9383C19.789 69.0537 19.8667 69.1679 19.9445 69.2833C19.9934 69.3573 20.0436 69.43 20.0951 69.5041C20.2243 69.6935 20.356 69.8816 20.4915 70.0686C20.5429 70.1413 20.5956 70.2141 20.6495 70.2868C20.726 70.3935 20.8051 70.5001 20.8854 70.6067C21.7823 71.8085 22.7633 72.9538 23.8208 74.0339C23.9375 74.1531 24.0554 74.271 24.1746 74.3889C24.2711 74.4843 24.369 74.5796 24.4668 74.6749C24.4882 74.6963 24.5107 74.7176 24.5333 74.7389C24.6487 74.8505 24.7654 74.9609 24.8833 75.0713C24.8996 75.0864 24.9172 75.1027 24.9348 75.119C25.0451 75.2219 25.1568 75.3235 25.2684 75.4251C25.996 76.0849 26.755 76.7147 27.5453 77.3118C27.6745 77.4096 27.805 77.5062 27.9354 77.6028C28.0257 77.6693 28.1161 77.7346 28.2076 77.801C28.2817 77.8537 28.3557 77.9077 28.4309 77.9604C28.6856 78.1397 28.944 78.3166 29.2049 78.4922C30.3779 79.2725 31.6085 79.9851 32.8956 80.6248H32.8968C33.0185 80.685 33.1427 80.7453 33.2656 80.8055C34.2943 81.301 35.3581 81.7488 36.4545 82.1465C36.7656 82.2594 37.0767 82.3673 37.3878 82.4701C37.5697 82.5303 37.7516 82.5881 37.9322 82.6445C38.9922 82.9757 40.0585 83.2517 41.1248 83.475C41.2565 83.5013 41.3882 83.5289 41.52 83.554C41.6153 83.5728 41.7106 83.5916 41.806 83.6079C41.8461 83.6167 41.8875 83.6242 41.9289 83.6305C42.0155 83.6468 42.102 83.6631 42.1886 83.6782C42.1986 83.6794 42.2074 83.6819 42.2174 83.6832C42.3554 83.707 42.4934 83.7309 42.6327 83.7522C42.7932 83.7785 42.9551 83.8036 43.1169 83.8275C43.1232 83.8287 43.1282 83.83 43.1344 83.83C44.6749 84.0558 46.2154 84.1712 47.7458 84.1825C47.8299 84.1837 47.9127 84.1837 47.9967 84.1837C48.437 84.1837 48.8774 84.1749 49.3164 84.1574C49.4607 84.1524 49.6037 84.1448 49.748 84.1373C49.7505 84.1386 49.753 84.1373 49.7542 84.1373C50.6926 84.0884 51.6246 84.0006 52.5492 83.8751C52.5855 83.8689 52.6232 83.8638 52.6596 83.8588C52.7875 83.8413 52.9155 83.8224 53.0434 83.8024C53.1965 83.7798 53.3508 83.756 53.5026 83.7296C53.5615 83.7208 53.6192 83.7108 53.6782 83.7008C53.83 83.6744 53.9818 83.6481 54.1348 83.6192C54.3092 83.5866 54.4848 83.5527 54.6592 83.5176C55.8082 83.2868 56.941 82.9958 58.0562 82.6483C58.0751 82.6433 58.0939 82.637 58.1127 82.6307C58.2745 82.5793 58.4351 82.5278 58.5957 82.4752C60.16 81.9596 61.6841 81.3298 63.1556 80.5935C63.2409 80.5508 63.3262 80.5082 63.4103 80.4643C63.5018 80.4178 63.5947 80.3702 63.6862 80.3225C63.7 80.315 63.7138 80.3074 63.7276 80.3012C64.7262 79.7781 65.6984 79.2048 66.6418 78.5851C66.8011 78.4797 66.9591 78.3731 67.1159 78.2664C67.3794 78.0858 67.6403 77.9027 67.9 77.7145C67.91 77.7082 67.9201 77.7007 67.9301 77.6919C68.0656 77.5941 68.201 77.495 68.3353 77.3933C69.5734 76.4663 70.7514 75.4514 71.8591 74.3525C71.9544 74.2597 72.0485 74.1656 72.1413 74.0703C72.2028 74.0088 72.263 73.9473 72.3219 73.8859C72.6431 73.5547 72.9567 73.2185 73.2653 72.8735C73.9239 72.1372 74.5524 71.3682 75.1482 70.5678C75.2473 70.4349 75.3464 70.3006 75.4443 70.1652C75.5647 69.9996 75.6826 69.8315 75.7993 69.6634C75.8834 69.5442 75.9661 69.4238 76.0477 69.3021C76.0489 69.3021 76.0489 69.3008 76.0502 69.2996C76.1455 69.1566 76.2409 69.0136 76.335 68.8693C77.0425 67.7879 77.6935 66.6577 78.2819 65.4797C78.2882 65.4672 78.2932 65.4559 78.2994 65.4434C78.3446 65.3543 78.3885 65.264 78.4324 65.1737C78.4763 65.0846 78.519 64.9943 78.5629 64.9039C78.5679 64.8914 78.5742 64.8789 78.5804 64.8663C79.0433 63.8916 79.4636 62.8868 79.8387 61.8518C79.9942 61.4216 80.141 60.99 80.279 60.5572C80.3379 60.3716 80.3956 60.1847 80.4521 59.9978C80.7732 58.9264 81.0379 57.8501 81.2487 56.7713C81.2825 56.5969 81.3152 56.4225 81.3465 56.2469C81.3779 56.0738 81.408 55.9007 81.4368 55.7263C81.4682 55.5382 81.4971 55.3512 81.5234 55.1631C81.5472 55 81.5698 54.8369 81.5911 54.6738C81.7793 53.2375 81.8734 51.8011 81.8759 50.3748C81.8772 50.3221 81.8772 50.2707 81.8759 50.218C81.8759 50.1038 81.8746 49.9884 81.8734 49.8743C81.8721 49.809 81.8709 49.7438 81.8696 49.6786ZM78.164 61.2447C75.8721 67.5647 71.7449 72.9149 66.2278 76.7159C63.5696 78.5462 60.6605 79.965 57.5795 80.9322C54.4672 81.9081 51.2433 82.4024 47.9967 82.4024C44.2747 82.4024 40.5954 81.7526 37.0616 80.4718C32.9884 78.9953 29.3279 76.7649 26.1804 73.8445C23.1384 71.0232 20.701 67.6776 18.9359 63.9029C17.1697 60.127 16.1636 56.1127 15.9466 51.9692C15.722 47.6815 16.358 43.4427 17.8345 39.3694C20.1264 33.0482 24.2536 27.6992 29.7707 23.8982C32.4289 22.0667 35.338 20.6491 38.4189 19.682C41.5312 18.706 44.7552 18.2105 48.0017 18.2105V17.3198H48.003V18.2105C51.725 18.2105 55.4031 18.8603 58.9369 20.1423C63.0101 21.6188 66.6706 23.848 69.818 26.7684C72.8601 29.5909 75.2975 32.9353 77.0625 36.7112C78.8288 40.4859 79.8349 44.5014 80.0519 48.6436C80.2765 52.9314 79.6405 57.1715 78.164 61.2447Z" fill="white"/>
<path d="M29.1675 22.1571C29.0282 22.2499 28.8902 22.3427 28.7522 22.4393C28.623 22.5271 28.4951 22.6175 28.3684 22.7078C28.2103 22.8194 28.0535 22.9323 27.8967 23.049C27.7738 23.1393 27.6508 23.2309 27.5291 23.3225L16.2302 12.0248C16.7282 11.5845 17.2363 11.1567 17.7506 10.7402L29.1675 22.1571Z" fill="white"/>
<path d="M18.054 34.4773C17.98 34.6178 17.906 34.7596 17.8345 34.9026C17.7881 34.9916 17.7429 35.082 17.699 35.171C17.5823 35.4043 17.4694 35.6389 17.359 35.876L15.8988 35.447L2.89136 31.6272C3.13221 30.9661 3.38436 30.3138 3.65031 29.6702L12.8141 32.361L5.72769 25.2758C6.08897 24.5984 6.46657 23.9336 6.85921 23.2812L17.2373 33.6594L18.054 34.4773Z" fill="white"/>
<path d="M24.1005 26.2998C23.7443 26.6535 23.3955 27.0161 23.0556 27.3874C22.9539 27.4978 22.8536 27.6094 22.752 27.7211C22.7507 27.7223 22.7507 27.7236 22.7507 27.7236L11.6638 16.6367C12.0928 16.1399 12.5306 15.6544 12.9785 15.1777L24.1005 26.2998Z" fill="white"/>
<path d="M15.8161 39.7556C15.7659 39.9099 15.7157 40.0642 15.668 40.2185C15.6329 40.3302 15.599 40.4418 15.5652 40.5547C15.4987 40.773 15.436 40.9913 15.3745 41.2083H0.486572C0.580657 40.5547 0.68854 39.8999 0.810223 39.2463H10.6063L1.89282 34.6901C2.07723 34.0541 2.27543 33.4206 2.48743 32.7871L14.8413 39.2463L15.8161 39.7556Z" fill="white"/>
<path d="M20.9432 29.9213C20.8629 30.028 20.7826 30.1358 20.7036 30.2437C20.666 30.2939 20.6296 30.3453 20.5919 30.3968C20.5079 30.5122 20.4238 30.6288 20.3423 30.7455C20.3235 30.7718 20.3059 30.7969 20.2871 30.8233C20.2081 30.9349 20.1303 31.0478 20.0525 31.162C20.0325 31.1921 20.0124 31.2209 19.9923 31.2498C19.917 31.3614 19.8405 31.4743 19.7665 31.5872C19.7502 31.6111 19.7351 31.6349 19.7188 31.6588L8.61938 20.558C9.02332 19.976 9.4398 19.4052 9.86757 18.8457L20.9432 29.9213Z" fill="white"/>
<path d="M48.0005 0V16.4297H47.9993C47.85 16.4297 47.7007 16.4309 47.5514 16.4334C47.4987 16.4334 47.4461 16.4347 47.3934 16.4359C47.219 16.4384 47.0446 16.4435 46.8703 16.4485C46.7197 16.4535 46.5692 16.4598 46.4187 16.4673C46.2606 16.4748 46.1013 16.4836 45.9432 16.4936C45.9269 16.4936 45.9106 16.4949 45.8943 16.4961V0.0476694C46.5943 0.0150535 47.2968 0 48.0005 0Z" fill="white"/>
<path d="M42.9488 0.269531V16.8133C42.7807 16.8384 42.6126 16.866 42.4445 16.8936C42.4219 16.8961 42.4006 16.8999 42.3805 16.9049C42.0531 16.9601 41.7282 17.0191 41.4033 17.0843C41.3644 17.0918 41.3242 17.0994 41.2854 17.1081C41.1373 17.1395 40.9893 17.1696 40.8425 17.2022V0.541749C41.5413 0.43512 42.2438 0.344799 42.9488 0.269531Z" fill="white"/>
<path d="M32.8905 19.9968C32.8604 20.0106 32.8316 20.0256 32.8014 20.0419C32.6559 20.1147 32.5104 20.1887 32.3661 20.264C32.3197 20.2865 32.2746 20.3104 32.2282 20.3355C32.1592 20.3718 32.0914 20.4082 32.0237 20.4446C31.9572 20.4797 31.8907 20.5149 31.8255 20.5512L30.5409 19.2002L20.519 8.6552C21.0472 8.28764 21.5841 7.92887 22.1273 7.58138L29.2689 15.0956L26.2155 5.24182C26.8189 4.93447 27.4299 4.63968 28.0458 4.35742L32.3887 18.3785L32.8905 19.9968Z" fill="white"/>
<path d="M37.9875 1.06445V17.9532C37.8759 17.9871 37.763 18.0235 37.6513 18.0599C37.5384 18.095 37.4268 18.1326 37.3151 18.169L35.8574 15.4594L29.5325 3.70885C30.1697 3.44291 30.812 3.19076 31.4593 2.95241L35.8574 11.1227V1.57125C36.5625 1.38559 37.2725 1.21624 37.9875 1.06445Z" fill="white"/>
<path d="M95.9272 45.3911H81.5148C81.4834 45.1766 81.4508 44.9633 81.4144 44.7513C81.3918 44.6159 81.368 44.4816 81.3442 44.3474C81.3442 44.3436 81.3429 44.3386 81.3416 44.3349C81.3253 44.2395 81.3078 44.1454 81.289 44.0514C81.2651 43.9184 81.2388 43.7854 81.2112 43.6524C81.1886 43.5333 81.1635 43.4141 81.1384 43.2949H95.7654C95.8344 43.9911 95.8883 44.6899 95.9272 45.3911Z" fill="white"/>
<path d="M14.8026 43.5781C14.8014 43.5819 14.8014 43.5844 14.8001 43.5882C14.7687 43.7425 14.7386 43.898 14.7098 44.0523C14.6521 44.3534 14.5994 44.6557 14.5517 44.9568C14.5379 45.0396 14.5241 45.1211 14.5128 45.2039C14.494 45.3206 14.4764 45.4372 14.4601 45.5539H0.0639648C0.0965808 44.8966 0.14425 44.2367 0.205719 43.5781H14.8026Z" fill="white"/>
<path d="M14.1603 51.9028H0.160501C0.106559 51.2455 0.0664165 50.5869 0.0388184 49.9258H14.1251C14.1201 50.2695 14.1214 50.612 14.1289 50.9532C14.1302 51.0611 14.1327 51.169 14.1364 51.2768C14.1389 51.3847 14.1427 51.4926 14.1477 51.6005C14.1515 51.7008 14.1552 51.8025 14.1603 51.9028Z" fill="white"/>
<path d="M14.7839 56.9438H0.848124C0.721424 56.2877 0.609777 55.6292 0.513184 54.9668H14.4477C14.464 55.0872 14.4816 55.2077 14.5004 55.3281C14.533 55.5514 14.5681 55.7734 14.607 55.9955C14.6296 56.1272 14.6534 56.2601 14.6773 56.3919C14.7112 56.5763 14.7463 56.7607 14.7839 56.9438Z" fill="white"/>
<path d="M20.8855 70.6079L11.8822 79.6099C11.4406 79.1043 11.0091 78.5887 10.5889 78.0644L19.7138 68.9395C19.7891 69.0549 19.8668 69.169 19.9446 69.2844C19.9935 69.3584 20.0437 69.4312 20.0952 69.5052C20.2244 69.6946 20.3561 69.8828 20.4916 70.0697C20.543 70.1425 20.5957 70.2152 20.6496 70.288C20.7262 70.3946 20.8052 70.5013 20.8855 70.6079Z" fill="white"/>
<path d="M25.2685 75.4244L16.4873 84.2056C15.9805 83.7653 15.485 83.3137 14.9995 82.8546L23.8209 74.0332C23.9375 74.1524 24.0555 74.2703 24.1746 74.3882C24.2712 74.4836 24.3691 74.5789 24.4669 74.6742C24.4882 74.6956 24.5108 74.7169 24.5334 74.7382C24.6488 74.8499 24.7655 74.9603 24.8834 75.0706C24.8997 75.0857 24.9173 75.102 24.9348 75.1183C25.0452 75.2212 25.1569 75.3228 25.2685 75.4244Z" fill="white"/>
<path d="M29.2049 78.4929L20.4162 87.2817C19.8604 86.8915 19.3147 86.4914 18.7778 86.0799L27.5452 77.3125C27.6745 77.4103 27.8049 77.5069 27.9354 77.6035C28.0257 77.67 28.116 77.7353 28.2076 77.8017C28.2816 77.8544 28.3556 77.9084 28.4309 77.9611C28.6855 78.1404 28.944 78.3173 29.2049 78.4929Z" fill="white"/>
<path d="M43.1748 95.7552C42.5049 95.6875 41.835 95.6059 41.1651 95.5081L41.125 83.4766C41.2567 83.5029 41.3884 83.5305 41.5202 83.5556C41.6155 83.5744 41.7108 83.5932 41.8062 83.6095C41.8463 83.6183 41.8877 83.6258 41.9291 83.6321C42.0157 83.6497 42.1022 83.6647 42.1888 83.6798C42.1988 83.681 42.2076 83.6836 42.2176 83.6848C42.3556 83.7086 42.4936 83.7325 42.6329 83.7538C42.7934 83.7801 42.9553 83.8052 43.1171 83.8291C43.1234 83.8303 43.1284 83.8316 43.1346 83.8316L43.1748 95.7552Z" fill="white"/>
<path d="M49.7931 95.967C49.1258 95.992 48.4559 96.0033 47.7847 95.9996L47.7458 84.1838C47.8299 84.1851 47.9127 84.1851 47.9967 84.1851C48.4371 84.1851 48.8774 84.1763 49.3164 84.1587C49.4607 84.1537 49.6037 84.1462 49.748 84.1387C49.7505 84.1399 49.753 84.1387 49.7542 84.1387L49.7931 95.967Z" fill="white"/>
<path d="M37.9322 82.6451V94.9237C37.2423 94.7757 36.5511 94.6101 35.8624 94.4282V89.7817L33.7285 93.816C33.0649 93.609 32.4026 93.387 31.7415 93.1487L35.8624 85.356L37.3878 82.4707C37.5697 82.5309 37.7516 82.5886 37.9322 82.6451Z" fill="white"/>
<path d="M33.2657 80.8056L32.3963 84.0421L30.1157 92.5298C29.486 92.2777 28.8638 92.013 28.2503 91.7357L29.5537 86.8847L25.8593 90.5791C25.2208 90.2492 24.5923 89.9042 23.9739 89.548L30.6263 82.8956L32.8956 80.625H32.8968C33.0185 80.6852 33.1427 80.7454 33.2657 80.8056Z" fill="white"/>
<path d="M17.6578 65.3517L15.4701 67.6662L8.41623 75.1328C8.01982 74.5545 7.63595 73.9661 7.26714 73.3715L11.5235 68.8667L5.69029 70.6418C5.36413 70.0309 5.05051 69.4137 4.75195 68.7902L14.3573 65.8686L17.4508 64.9277C17.5186 65.0695 17.5876 65.2112 17.6578 65.3517Z" fill="white"/>
<path d="M15.7233 60.5727L12.409 62.3553L3.905 66.9303C3.62651 66.2843 3.36432 65.6319 3.11469 64.9746L8.07231 62.3076L2.17259 62.2424C1.95431 61.5411 1.75109 60.8336 1.56543 60.1211L11.9222 60.2365L15.6317 60.2779C15.6605 60.377 15.6919 60.4748 15.7233 60.5727Z" fill="white"/>
<path d="M54.6593 83.5176V95.5315C53.9593 95.6306 53.2556 95.7134 52.5493 95.7812V83.8751C52.5857 83.8688 52.6233 83.8638 52.6597 83.8588C52.7877 83.8412 52.9156 83.8224 53.0436 83.8023C53.1966 83.7798 53.3509 83.7559 53.5027 83.7296C53.5617 83.7208 53.6194 83.7108 53.6783 83.7007C53.8301 83.6744 53.9819 83.648 54.135 83.6192C54.3093 83.5866 54.4849 83.5527 54.6593 83.5176Z" fill="white"/>
<path d="M70.7952 90.2268L67.0243 86.4559L68.5986 91.3407C68.0278 91.6129 67.4508 91.8726 66.87 92.1222L64.1026 83.5342L63.1555 80.595C63.2408 80.5524 63.3261 80.5097 63.4102 80.4658C63.5017 80.4194 63.5946 80.3717 63.6862 80.3241C63.7 80.3165 63.7138 80.309 63.7276 80.3027L65.6669 82.2421L72.6167 89.1931C72.017 89.5506 71.4099 89.8956 70.7952 90.2268Z" fill="white"/>
<path d="M64.5181 93.0547C63.847 93.3006 63.1696 93.5327 62.4871 93.7484L60.1677 89.6062V94.4221C59.4689 94.6052 58.7652 94.7746 58.0564 94.9264V82.6477C58.0752 82.6427 58.094 82.6364 58.1128 82.6302C58.2747 82.5787 58.4352 82.5273 58.5958 82.4746L60.1677 85.2833L64.5181 93.0547Z" fill="white"/>
<path d="M17.3591 35.8769C17.4695 35.6398 17.5824 35.4052 17.6991 35.1719C17.5824 35.4052 17.4683 35.6398 17.3591 35.8769ZM67.116 78.2676C67.3794 78.0882 67.6404 77.9038 67.9 77.7156C67.6404 77.9038 67.3794 78.0869 67.116 78.2676Z" fill="#FDFDFA"/>
<path d="M47.9994 83.3181C66.1907 83.3181 80.9377 68.5711 80.9377 50.3797C80.9377 32.1884 66.1907 17.4414 47.9994 17.4414C29.808 17.4414 15.061 32.1884 15.061 50.3797C15.061 68.5711 29.808 83.3181 47.9994 83.3181Z" fill="white"/>
<path d="M56.3037 57.1937L48.4195 82.4096C48.2903 82.4108 48.1623 82.4121 48.0331 82.4121C30.3126 82.4121 15.9465 68.0473 15.9465 50.3268C15.9465 32.605 30.3126 18.2402 48.0331 18.2402C49.8546 18.2402 51.6397 18.392 53.3783 18.6843L47.096 57.1937H56.3037Z" fill="#F9D64A"/>
<path d="M52.8378 68.1195C51.2936 68.4168 49.7744 68.5222 48.3945 68.5222C48.2202 68.5222 48.0483 68.5197 47.879 68.5172C44.3489 68.4507 41.2379 67.7746 38.6349 66.5063C37.0028 65.7122 35.9302 64.863 35.2566 64.1918L35.8876 63.5608L36.5148 62.9336C38.0917 64.4954 41.7697 66.6204 47.9128 66.7359C49.353 66.7622 50.9863 66.6731 52.6359 66.3432L52.8378 68.1195Z" fill="#F8FDFC"/>
<path d="M60.7797 64.1091C58.5242 66.4048 55.664 67.5701 52.8791 68.1121C52.8653 68.1146 52.8515 68.1171 52.8377 68.1196L52.6357 66.3433C52.9205 66.2868 53.2065 66.2229 53.4925 66.1501C55.6615 65.5994 57.8054 64.5946 59.5202 62.8496L60.155 63.4844L60.7797 64.1091Z" fill="#F5D748"/>
<path d="M69.8935 37.6732C69.324 37.5816 68.7344 37.5527 68.1398 37.5527C67.2316 37.5527 66.3095 37.6205 65.4314 37.6343C63.916 37.6594 62.4006 37.6983 60.8865 37.7459C56.5875 37.8789 52.2922 38.1122 47.9932 38.1122C46.8466 38.1122 45.7 38.0947 44.5522 38.0558C41.6331 37.9554 38.714 37.8362 35.7948 37.7459C34.2794 37.6983 32.7641 37.6594 31.2487 37.6343C30.3705 37.6205 29.4485 37.5527 28.5403 37.5527C27.9457 37.5527 27.3561 37.5816 26.7866 37.6732C24.7067 38.0081 23.8348 40.0027 24.4357 41.9308C24.9199 43.4801 25.783 44.1186 26.2685 45.6628C26.5143 46.4443 26.8116 47.2058 27.0324 47.9961C27.474 49.5705 27.6935 51.2364 28.258 52.7718C28.6256 53.7754 29.2553 54.7401 30.215 55.2093C30.9075 55.548 31.6927 55.5969 32.468 55.5969C32.6047 55.5969 32.7402 55.5944 32.8744 55.5931C36.3769 55.5517 39.8793 55.5329 43.3793 55.3937C43.8234 55.3761 44.1796 55.2519 44.4669 55.0399C44.8733 54.7413 45.1393 54.2672 45.3187 53.6763C45.7226 52.3378 45.8995 50.9391 46.2144 49.578C46.4703 48.4703 47.2719 45.7858 48.0898 45.0017C48.16 44.934 48.2504 44.9001 48.3407 44.9001C48.431 44.9001 48.5213 44.934 48.5916 45.0017C49.4082 45.787 50.2098 48.4703 50.467 49.578C50.7818 50.9391 50.9575 52.3378 51.3627 53.6763C51.5408 54.2672 51.8067 54.7413 52.2132 55.0399C52.5005 55.2519 52.8567 55.3761 53.3021 55.3937C56.8007 55.5329 60.3032 55.5517 63.8056 55.5931C63.9399 55.5944 64.0754 55.5969 64.2121 55.5969C64.9886 55.5969 65.7739 55.548 66.4651 55.2093C67.4248 54.7401 68.0558 53.7754 68.4233 52.7718C68.9866 51.2364 69.2061 49.5705 69.6477 47.9961C69.8697 47.2058 70.1657 46.4443 70.4116 45.6628C70.8971 44.1186 71.7602 43.4801 72.2444 41.9308C72.8465 40.0027 71.9734 38.0081 69.8935 37.6732ZM71.286 41.631C71.0815 42.2871 70.7993 42.7449 70.4718 43.2756C70.1256 43.8363 69.7342 44.4723 69.4545 45.3617C69.3591 45.6653 69.2563 45.9626 69.1471 46.2788C68.9878 46.7442 68.821 47.2259 68.6817 47.7251C68.4998 48.3724 68.3543 49.0323 68.2138 49.6708C68.0006 50.6418 67.7986 51.56 67.4812 52.4269C67.2868 52.9588 66.8377 53.9096 66.0235 54.3085C65.513 54.5582 64.8506 54.5933 64.2121 54.5933C64.0804 54.5933 63.9487 54.5908 63.8169 54.5895C63.2637 54.5833 62.7105 54.577 62.1573 54.5707C59.2645 54.5394 56.2739 54.508 53.3422 54.3913C53.0411 54.3788 52.8931 54.2948 52.8078 54.2308C52.6121 54.0878 52.449 53.803 52.3236 53.3853C52.0865 52.6037 51.9322 51.7971 51.7704 50.9441C51.6713 50.4235 51.5684 49.8853 51.4442 49.3509C51.4078 49.1941 50.5347 45.4784 49.2878 44.2779C49.0319 44.032 48.6957 43.8965 48.3407 43.8965C47.9857 43.8965 47.6495 44.032 47.3948 44.2779C46.1416 45.4809 45.2735 49.1941 45.2371 49.3522C45.1129 49.8853 45.0101 50.4247 44.911 50.9453C44.7479 51.7984 44.5936 52.605 44.359 53.3853C44.2311 53.803 44.068 54.0878 43.871 54.232C43.787 54.2948 43.639 54.3788 43.3391 54.3913C40.4062 54.508 37.4156 54.5394 34.5228 54.5707C33.9696 54.577 33.4164 54.5833 32.8619 54.5895C32.7314 54.5908 32.5997 54.5933 32.468 54.5933C31.8295 54.5933 31.1684 54.5582 30.6553 54.3073C29.8437 53.9109 29.3958 52.9588 29.2001 52.4256C28.8815 51.5575 28.6795 50.6393 28.465 49.6671C28.3245 49.0298 28.1803 48.3712 27.9984 47.7264C27.8591 47.2259 27.6923 46.7416 27.5317 46.2737C27.4226 45.9601 27.321 45.6641 27.2256 45.3617C26.9459 44.4723 26.5545 43.8363 26.2082 43.2756C25.8808 42.7449 25.5986 42.2871 25.3941 41.6322C25.1558 40.867 25.221 40.1005 25.5722 39.5323C25.8633 39.0618 26.3387 38.762 26.9459 38.6642C27.4025 38.5902 27.9093 38.5563 28.5403 38.5563C29.0345 38.5563 29.5476 38.5776 30.0444 38.5977C30.4345 38.614 30.8385 38.6316 31.2324 38.6378C32.6436 38.6617 34.1251 38.6981 35.7635 38.7495C37.5272 38.8034 39.3224 38.8699 41.0573 38.9339C42.1913 38.9753 43.3642 39.0192 44.5171 39.0593C45.626 39.097 46.7626 39.1158 47.9932 39.1158C51.0202 39.1158 54.0861 38.9991 57.0504 38.8862C58.3186 38.8386 59.6295 38.7884 60.9179 38.7495C62.5537 38.6981 64.0365 38.6617 65.4477 38.6378C65.8416 38.6316 66.2456 38.614 66.6357 38.5977C67.1325 38.5776 67.6468 38.5563 68.1398 38.5563C68.4547 38.5563 68.7394 38.5651 69.0029 38.5826C69.265 38.6002 69.5059 38.6266 69.7342 38.6642C70.3414 38.762 70.8168 39.0619 71.1079 39.5335C71.4604 40.1018 71.5256 40.867 71.286 41.631Z" fill="#020202"/>
<path d="M71.286 41.6313C71.0815 42.2874 70.7993 42.7453 70.4719 43.2759C70.1256 43.8367 69.7342 44.4727 69.4545 45.3621C69.3591 45.6657 69.2563 45.963 69.1471 46.2791C68.9878 46.7445 68.821 47.2262 68.6817 47.7255C68.4998 48.3728 68.3543 49.0326 68.2138 49.6711C68.0006 50.6421 67.7986 51.5604 67.4812 52.4272C67.2868 52.9591 66.8377 53.91 66.0235 54.3089C65.513 54.5585 64.8506 54.5936 64.2121 54.5936C64.0804 54.5936 63.9487 54.5911 63.8169 54.5899C63.2637 54.5836 62.7105 54.5773 62.1573 54.5711C59.2645 54.5397 56.2739 54.5083 53.3422 54.3917C53.0411 54.3791 52.8931 54.2951 52.8078 54.2311C52.6121 54.0881 52.449 53.8033 52.3236 53.3856C52.0865 52.6041 51.9322 51.7975 51.7704 50.9444C51.6713 50.4238 51.5684 49.8857 51.4442 49.3513C51.4078 49.1945 50.5347 45.4787 49.2878 44.2782C49.0319 44.0324 48.6957 43.8969 48.3407 43.8969C47.9857 43.8969 47.6495 44.0324 47.3948 44.2782C46.1416 45.4813 45.2735 49.1945 45.2371 49.3525C45.113 49.8857 45.0101 50.4251 44.911 50.9457C44.7479 51.7987 44.5936 52.6053 44.359 53.3856C44.2311 53.8033 44.068 54.0881 43.871 54.2324C43.787 54.2951 43.639 54.3791 43.3392 54.3917C40.4062 54.5083 37.4156 54.5397 34.5228 54.5711C33.9696 54.5773 33.4164 54.5836 32.8619 54.5899C32.7314 54.5911 32.5997 54.5936 32.468 54.5936C31.8295 54.5936 31.1684 54.5585 30.6553 54.3076C29.8437 53.9112 29.3958 52.9591 29.2001 52.4259C28.8815 51.5579 28.6795 50.6396 28.465 49.6674C28.3245 49.0301 28.1803 48.3715 27.9984 47.7267C27.8591 47.2262 27.6923 46.742 27.5317 46.2741C27.4226 45.9605 27.321 45.6644 27.2256 45.3621C26.9459 44.4727 26.5545 43.8367 26.2083 43.2759C25.8808 42.7453 25.5986 42.2874 25.3941 41.6326C25.1558 40.8674 25.221 40.1009 25.5722 39.5326C25.8633 39.0622 26.3387 38.7624 26.9459 38.6645C27.4025 38.5905 27.9093 38.5566 28.5403 38.5566C29.0346 38.5566 29.5476 38.578 30.0444 38.598C30.4345 38.6143 30.8385 38.6319 31.2324 38.6382C32.6436 38.662 34.1252 38.6984 35.7635 38.7498C37.5272 38.8038 39.3224 38.8703 41.0573 38.9342C42.1913 38.9756 43.3642 39.0195 44.5171 39.0597C45.626 39.0973 46.7626 39.1161 47.9932 39.1161C51.0202 39.1161 54.0861 38.9995 57.0504 38.8866C58.3186 38.8389 59.6296 38.7887 60.9179 38.7498C62.5537 38.6984 64.0365 38.662 65.4477 38.6382C65.8416 38.6319 66.2456 38.6143 66.6357 38.598C67.1325 38.578 67.6468 38.5566 68.1398 38.5566C68.4547 38.5566 68.7394 38.5654 69.0029 38.583C69.2651 38.6005 69.5059 38.6269 69.7342 38.6645C70.3414 38.7624 70.8168 39.0622 71.1079 39.5339C71.4604 40.1021 71.5256 40.8674 71.286 41.6313Z" fill="#493619"/>
<path d="M31.9864 52.6813C32.9825 53.2998 34.2871 53.1254 35.4011 53.1241C37.2852 53.1216 39.1707 53.0978 41.0511 53.01C41.4613 52.9912 41.8916 52.9623 42.2404 52.7465C42.7898 52.4053 42.9792 51.7078 43.1235 51.0768C43.6378 48.8226 44.1509 46.5683 44.6652 44.3141C44.9086 43.249 45.2159 42.0974 44.3993 41.1917C43.5663 40.2684 42.1099 40.3537 40.9796 40.2797C38.8659 40.143 36.7534 40.0012 34.6383 39.9009C33.769 39.8595 32.8959 39.8394 32.0291 39.7528C31.3353 39.6839 30.5488 39.6161 29.8952 39.9122C29.0585 40.2923 28.2117 41.0261 28.3196 42.0146C28.5003 43.6605 29.1187 45.211 29.6845 46.7527C30.0771 47.824 30.3381 48.9367 30.6354 50.0356C30.8637 50.8774 31.028 51.891 31.728 52.4919C31.8108 52.5634 31.8961 52.6261 31.9864 52.6813Z" fill="#010101"/>
<path d="M65.1254 52.7724C64.1294 53.3833 62.8247 53.2115 61.7108 53.2102C59.8266 53.2077 57.9411 53.1839 56.0607 53.0973C55.6505 53.0785 55.2202 53.0509 54.8714 52.8364C54.322 52.4989 54.1326 51.8115 53.9883 51.188C53.474 48.9614 52.9609 46.736 52.4466 44.5093C52.2032 43.4568 51.8959 42.3203 52.7125 41.4246C53.5455 40.5126 55.0019 40.5966 56.1322 40.5239C58.2459 40.3884 60.3584 40.2479 62.4735 40.1488C63.3428 40.1087 64.2159 40.0886 65.0827 40.002C65.7765 39.9343 66.563 39.8665 67.2166 40.1601C68.0533 40.5352 68.9001 41.2602 68.7922 42.2362C68.6115 43.8607 67.9931 45.3924 67.4273 46.9153C67.0347 47.9741 66.7737 49.0718 66.4764 50.1581C66.2481 50.9898 66.0838 51.9909 65.3838 52.583C65.3023 52.6558 65.2157 52.7172 65.1254 52.7724Z" fill="#010101"/>
<path d="M41.1227 40.29L33.7039 53.1394C33.0955 53.1093 32.4996 53.0014 31.9865 52.6828C31.8962 52.6276 31.8096 52.5649 31.7281 52.4946C31.4433 52.25 31.2476 51.9376 31.0996 51.5964L37.752 40.0742C38.8283 40.1407 39.9047 40.211 40.981 40.2812C41.0274 40.2837 41.0751 40.2875 41.1227 40.29Z" fill="#505050"/>
<path d="M35.5968 39.9492L30.3644 49.0139C30.2114 48.4343 30.0546 47.856 29.8689 47.2865L34.1453 39.8789L34.6383 39.9015C34.9582 39.9165 35.2781 39.9328 35.5968 39.9492Z" fill="#505050"/>
<path d="M32.9448 39.8239L29.3959 45.9707C29.2855 45.6709 29.1764 45.3699 29.0723 45.0675L32.1344 39.7637C32.4041 39.7888 32.6738 39.8088 32.9448 39.8239Z" fill="#505050"/>
<path d="M65.661 39.9551L58.0352 53.1658C57.3766 53.1495 56.718 53.1269 56.0606 53.0968C55.6504 53.0767 55.2202 53.0491 54.8702 52.8359C54.835 52.8145 54.8012 52.7907 54.7686 52.7669L62.0419 40.1708C62.1849 40.1633 62.3292 40.1558 62.4734 40.1495C63.3428 40.1081 64.2159 40.0881 65.0827 40.0027C65.2696 39.9852 65.4641 39.9664 65.661 39.9551Z" fill="#505050"/>
<path d="M59.7427 40.2969L53.8367 50.527C53.6937 49.9123 53.5519 49.2976 53.4102 48.6829V48.6817L58.1947 40.3922H58.1959C58.7115 40.3596 59.2271 40.327 59.7427 40.2969Z" fill="#505050"/>
<path d="M56.9163 40.4727L53.0575 47.1577C52.9773 46.8089 52.8957 46.4602 52.8154 46.1114L56.0381 40.5291C56.0695 40.5279 56.1009 40.5266 56.131 40.5241C56.3932 40.5078 56.6541 40.4902 56.9163 40.4727Z" fill="#505050"/>
</svg>
