<svg version="1.0" xmlns="http://www.w3.org/2000/svg"
 width="96" height="96" viewBox="0 0 337 337"
 preserveAspectRatio="xMidYMid meet">
<g transform="translate(0.000000,337.000000) scale(0.100000,-0.100000)"
fill="#178dd0" stroke="none">
<path d="M1475 3364 c-741 -111 -1289 -620 -1447 -1344 -20 -92 -23 -133 -23
-335 0 -257 13 -339 81 -544 162 -488 583 -903 1075 -1059 162 -52 280 -72
454 -79 187 -7 319 6 480 47 301 76 548 215 771 435 274 270 437 594 490 975
21 148 14 410 -15 552 -65 318 -218 611 -440 841 -243 252 -535 414 -876 487
-80 18 -141 22 -310 25 -115 2 -223 1 -240 -1z m470 -574 c143 -5 316 -15 385
-21 232 -19 250 -41 250 -294 0 -255 -17 -274 -260 -297 -90 -8 -303 -13 -635
-13 -721 0 -833 14 -879 109 -17 34 -19 62 -19 201 0 194 10 226 83 262 62 30
250 45 770 61 25 1 162 -3 305 -8z m-891 -1015 c154 -20 241 -50 289 -98 78
-78 77 -67 77 -564 l0 -442 -27 -21 c-26 -21 -35 -21 -263 -18 -215 3 -238 5
-270 23 -80 47 -94 130 -94 555 -1 407 17 539 77 568 30 15 84 14 211 -3z
m1445 0 c16 -8 33 -27 40 -42 47 -115 54 -819 10 -985 -5 -20 -21 -51 -35 -67
-38 -45 -94 -53 -342 -49 -212 3 -214 3 -233 27 -19 23 -19 41 -17 465 3 494
1 476 79 554 46 47 133 77 276 97 132 18 189 18 222 0z"/>
</g>
</svg>
