<svg width="96" height="96" viewBox="0 0 96 96" fill="none" xmlns="http://www.w3.org/2000/svg">
<path d="M96 48C96 74.5097 74.5097 96 48 96C21.4903 96 0 74.5097 0 48C0 21.4903 21.4903 0 48 0C74.5097 0 96 21.4903 96 48Z" fill="#E51037"/>
<g style="mix-blend-mode:soft-light">
<circle cx="48" cy="48" r="42" fill="url(#paint0_linear)"/>
</g>
<g style="mix-blend-mode:soft-light">
<path fill-rule="evenodd" clip-rule="evenodd" d="M48 0C21.4903 -3.4331e-06 3.4331e-06 21.4903 0 48C-2.31755e-06 74.5097 21.4903 96 48 96C74.5097 96 96 74.5097 96 48C96 21.4903 74.5097 2.31755e-06 48 0ZM48 90C71.196 90 90 71.196 90 48C90 24.804 71.196 6 48 6C24.804 6 6 24.804 6 48C6 71.196 24.804 90 48 90Z" fill="url(#paint1_linear)"/>
</g>
<path d="M34.2319 73H48.7219C60.9019 73 66.7119 63.55 66.7119 51.65H59.0819C59.0819 61.66 55.0919 66.42 47.9519 66.42H42.2119V52.91L55.3719 46.61V41.15L42.2119 47.45V41.78L55.3719 35.48V30.02L42.2119 36.32V24.14H34.2319V40.1L27.7219 43.25V48.71L34.2319 45.56V51.23L27.7219 54.38V59.84L34.2319 56.69V73Z" fill="white"/>
<defs>
<linearGradient id="paint0_linear" x1="90" y1="90" x2="6" y2="6" gradientUnits="userSpaceOnUse">
<stop stop-color="white"/>
<stop offset="1" stop-color="white" stop-opacity="0"/>
</linearGradient>
<linearGradient id="paint1_linear" x1="9" y1="-2.65427e-07" x2="87.5" y2="93" gradientUnits="userSpaceOnUse">
<stop stop-color="white"/>
<stop offset="1" stop-color="white" stop-opacity="0"/>
</linearGradient>
</defs>
</svg>
