<svg width="96" height="96" viewBox="0 0 96 96" fill="none" xmlns="http://www.w3.org/2000/svg">
<circle cx="48" cy="48" r="48" fill="#ffffff"/>
<path d="M58.5077 9.89824V7.49051C58.508 7.08498 58.3429 6.69685 58.0504 6.41577C57.7579 6.13469 57.3634 5.98497 56.958 6.00119C40.6621 6.80671 27.6706 19.9011 27.0019 36.1946C27.0001 36.5479 27.1439 36.8865 27.3995 37.1306C27.655 37.3748 27.9999 37.5031 28.353 37.4853H30.8365C31.6031 37.4922 32.2418 36.8997 32.2918 36.135C32.9954 22.7064 43.7309 11.9766 57.1666 11.2734C58.1898 11.1443 58.5177 10.5833 58.5177 9.9032L58.5077 9.89824ZM36.3697 37.5102H38.7241C39.4788 37.5123 40.1073 36.9319 40.1645 36.1797C40.817 27.028 48.126 19.761 57.2858 19.1568C58.0054 19.1064 58.5503 18.4865 58.5077 17.7668V15.369C58.4988 14.9668 58.3276 14.5853 58.0328 14.3114C57.7381 14.0374 57.3451 13.8942 56.9431 13.9144C45.1102 14.6971 35.6853 24.1149 34.8995 35.9414C34.8793 36.3432 35.0225 36.736 35.2966 37.0306C35.5708 37.3251 35.9525 37.4963 36.3548 37.5052L36.3697 37.5102ZM58.5077 23.2773V25.685C58.5011 26.4048 57.9529 27.0041 57.2362 27.075C52.4523 27.6605 48.6784 31.4202 48.077 36.1995C47.9857 36.9347 47.3677 37.4911 46.6266 37.5052H44.5454C43.413 37.5052 42.7325 36.7704 42.8169 35.9215C43.572 28.468 49.4705 22.5748 56.9282 21.8227C57.3352 21.7879 57.7381 21.9256 58.0385 22.2022C58.339 22.4789 58.5092 22.869 58.5077 23.2773ZM86.1144 58.4499C85.4339 58.4499 84.8726 58.1223 84.7435 57.0996C84.0486 43.6542 73.2965 32.91 59.8438 32.2181C59.0788 32.1681 58.4859 31.5298 58.4928 30.7635V28.2814C58.4751 27.9284 58.6034 27.5838 58.8477 27.3284C59.092 27.0729 59.4307 26.9292 59.7842 26.931C76.0883 27.5969 89.1925 40.5821 89.9986 56.8712C90.0161 57.2722 89.8709 57.6632 89.596 57.9557C89.3211 58.2482 88.9397 58.4174 88.5383 58.4251L86.1144 58.4499ZM58.5077 36.3137C58.5166 35.9107 58.6885 35.5284 58.9843 35.2542C59.2801 34.9801 59.6745 34.8376 60.0773 34.8592C71.9065 35.644 81.3281 45.0584 82.1159 56.8812C82.1376 57.2838 81.9949 57.6779 81.7207 57.9736C81.4464 58.2692 81.0639 58.4411 80.6606 58.4499H78.2615C77.536 58.4923 76.9134 57.9389 76.8708 57.2138C76.2618 48.0644 68.995 40.7654 59.8438 40.1115C59.0913 40.0543 58.5105 39.4261 58.5127 38.6718L58.5077 36.3137ZM72.7432 58.445H70.3292C69.609 58.4383 69.0094 57.8904 68.9384 57.1741C68.3521 52.3912 64.5879 48.6187 59.8041 48.0197C59.0686 47.9285 58.5119 47.3108 58.4978 46.5701V44.227C58.4962 43.8177 58.6671 43.4268 58.9686 43.15C59.2702 42.8731 59.6744 42.7361 60.0823 42.7724C67.54 43.5245 73.4384 49.4177 74.1936 56.8712C74.2284 57.278 74.0906 57.6807 73.8138 57.981C73.537 58.2812 73.1467 58.4514 72.7382 58.4499L72.7432 58.445ZM9.87072 37.5002C10.5512 37.5002 11.1125 37.8279 11.2416 38.8505C11.9372 52.3013 22.6977 63.0475 36.1562 63.732C36.9212 63.782 37.5141 64.4204 37.5072 65.1866V67.6688C37.5249 68.0217 37.3966 68.3664 37.1523 68.6218C36.908 68.8772 36.5693 69.0209 36.2158 69.0191C19.9117 68.3533 6.80755 55.368 6.00141 39.0789C5.98394 38.678 6.12909 38.287 6.40399 37.9944C6.67889 37.7019 7.06027 37.5327 7.46172 37.525L9.87072 37.5002ZM37.4923 59.6166C37.4834 60.0196 37.3115 60.4019 37.0157 60.676C36.7199 60.9502 36.3255 61.0927 35.9227 61.0711C24.1007 60.2848 14.6838 50.8792 13.889 39.064C13.8674 38.6614 14.01 38.2672 14.2843 37.9716C14.5586 37.676 14.9411 37.5041 15.3444 37.4953H17.7434C18.469 37.4529 19.0916 38.0062 19.1342 38.7314C19.7405 47.881 27.0052 55.1821 36.1562 55.8387C36.9087 55.8959 37.4895 56.524 37.4873 57.2783L37.4923 59.6166ZM23.2419 37.5002H25.6509C26.3711 37.5068 26.9707 38.0547 27.0417 38.7711C27.628 43.554 31.3922 47.3264 36.176 47.9254C36.9116 48.0167 37.4682 48.6344 37.4823 49.375V51.7232C37.4796 52.1279 37.3082 52.5132 37.0094 52.7864C36.7106 53.0596 36.3114 53.196 35.9078 53.1628C28.4501 52.4108 22.5516 46.5175 21.7965 39.064C21.7662 38.6614 21.9046 38.2643 22.1787 37.9677C22.4529 37.6712 22.838 37.5018 23.2419 37.5002ZM37.4873 86.1164C37.4873 85.4363 37.8151 84.8753 38.8383 84.7463C52.291 84.0544 63.0431 73.3102 63.738 59.8648C63.788 59.1001 64.4267 58.5076 65.1933 58.5145H67.6768C68.0299 58.4967 68.3748 58.625 68.6303 58.8692C68.8859 59.1133 69.0297 59.4518 69.0279 59.8052C68.359 76.1005 55.3647 89.1956 39.0668 89.9986C38.6657 90.0161 38.2745 89.871 37.9818 89.5962C37.6891 89.3215 37.5198 88.9403 37.5121 88.5391L37.4873 86.1164ZM59.6352 58.5095C60.0385 58.5183 60.421 58.6902 60.6953 58.9858C60.9695 59.2815 61.1122 59.6756 61.0906 60.0782C60.3027 71.901 50.8811 81.3155 39.0519 82.1003C38.6491 82.1218 38.2547 81.9793 37.9589 81.7052C37.6631 81.431 37.4912 81.0488 37.4823 80.6457V78.2479C37.44 77.5227 37.9936 76.9005 38.7191 76.8579C47.8736 76.2519 55.1786 68.991 55.8355 59.8449C55.8927 59.0927 56.5212 58.5123 57.2759 58.5145L59.6352 58.5095ZM37.4972 72.7374V70.3297C37.5039 69.6099 38.0521 69.0106 38.7688 68.9397C43.5526 68.3542 47.3266 64.5945 47.928 59.8151C48.0193 59.08 48.6373 58.5236 49.3783 58.5095H51.4595C52.592 58.5095 53.2725 59.2442 53.188 60.0931C52.4329 67.5466 46.5345 73.4399 39.0768 74.192C38.6698 74.2268 38.2668 74.0891 37.9664 73.8124C37.666 73.5358 37.4958 73.1457 37.4972 72.7374ZM37.4973 86.1164C37.4973 85.4363 37.8251 84.8753 38.8483 84.7463C52.3009 84.0544 63.053 73.3102 63.7479 59.8648C63.7979 59.1001 64.4366 58.5076 65.2033 58.5145H67.6868C68.0399 58.4967 68.3847 58.625 68.6403 58.8692C68.8958 59.1133 69.0396 59.4518 69.0378 59.8052C68.3689 76.1005 55.3747 89.1956 39.0768 89.9986C38.6756 90.0161 38.2844 89.871 37.9917 89.5962C37.6991 89.3215 37.5297 88.9403 37.5221 88.5391L37.4973 86.1164ZM59.6452 58.5095C60.0485 58.5183 60.4309 58.6902 60.7052 58.9858C60.9795 59.2815 61.1221 59.6756 61.1005 60.0782C60.3126 71.901 50.8911 81.3155 39.0619 82.1003C38.659 82.1218 38.2647 81.9793 37.9689 81.7052C37.6731 81.431 37.5011 81.0488 37.4923 80.6457V78.2479C37.4499 77.5227 38.0035 76.9005 38.7291 76.8579C47.8835 76.2519 55.1885 68.991 55.8454 59.8449C55.9027 59.0927 56.5311 58.5123 57.2858 58.5145L59.6452 58.5095ZM37.4972 72.7374V70.3297C37.5039 69.6099 38.0521 69.0106 38.7688 68.9397C43.5526 68.3542 47.3266 64.5945 47.928 59.8151C48.0193 59.08 48.6373 58.5236 49.3783 58.5095H51.4595C52.592 58.5095 53.2725 59.2442 53.188 60.0931C52.4329 67.5466 46.5345 73.4399 39.0768 74.192C38.6698 74.2268 38.2668 74.0891 37.9664 73.8124C37.666 73.5358 37.4958 73.1457 37.4972 72.7374Z" fill="#FF5C00"/>
</svg>
