<svg width="96" height="96" viewBox="0 0 96 96" fill="none" xmlns="http://www.w3.org/2000/svg">
<mask id="mask0" mask-type="alpha" maskUnits="userSpaceOnUse" x="0" y="0" width="96" height="96">
<circle cx="48" cy="48" r="48" fill="white"/>
</mask>
<g mask="url(#mask0)">
<circle cx="47" cy="48" r="48" fill="white"/>
<path d="M19.3655 30.4542C23.2566 28.2081 27.3257 26.4516 31.5993 25.1706C37.4182 23.4262 43.3687 22.6283 49.4405 22.748C52.2705 22.8039 56.9892 23.2743 57.7744 23.5544C57.7932 23.6277 57.7291 23.6325 57.6893 23.6486C57.4073 23.7611 57.1214 23.8647 56.8412 23.982C51.8415 26.0742 48.2713 30.4845 47.2522 35.8225C47.0857 36.6955 47.0021 37.576 46.9751 38.4638C46.9338 39.808 46.8086 41.1398 46.4409 42.4427C45.1119 47.1547 41.2421 50.8358 36.4654 51.9172C30.201 53.3352 23.8837 50.2497 21.157 44.4469C21.0048 44.1227 20.8975 43.7918 20.8179 43.4454C20.3676 41.4813 20.02 39.4993 19.7794 37.4994C19.5129 35.2847 19.3671 33.0618 19.3652 30.8303C19.3655 30.717 19.3655 30.6034 19.3655 30.4542Z" fill="#F7A800"/>
<path d="M64.1751 66.862C64.2261 66.2823 64.2875 65.7542 64.3167 65.2246C64.4838 62.2022 63.8345 59.3601 62.39 56.7039C61.0166 54.178 59.0942 52.1677 56.6409 50.6664C56.4142 50.5276 56.1845 50.3933 55.9597 50.2511C52.6019 48.1254 50.5081 45.1146 49.7771 41.2117C48.4584 34.1731 52.9094 27.3563 59.8735 25.677C62.3201 25.0869 64.7457 25.1708 67.1467 25.9234C69.1192 26.5417 71.0168 27.3496 72.8872 28.2226C74.1843 28.8279 75.4532 29.4887 76.6999 30.1921C76.8427 30.2726 76.9828 30.3583 77.1405 30.451C77.1465 30.5619 77.1581 30.6737 77.1578 30.7858C77.1569 32.4081 77.0776 34.0263 76.9357 35.6425C76.7272 38.0171 76.3723 40.3691 75.8692 42.699C74.3876 49.5565 71.7293 55.9245 67.9194 61.8133C66.8589 63.4523 65.715 65.0311 64.4908 66.5515C64.4072 66.6551 64.3419 66.7836 64.1751 66.862Z" fill="#67B2E8"/>
<path d="M48.2929 80.4439C47.8429 80.2619 46.4257 79.3966 44.963 78.4148C41.638 76.1837 38.5753 73.6372 35.7766 70.7734C32.9778 67.9097 30.5009 64.7904 28.3493 61.4132C26.3561 58.2848 24.6792 54.9953 23.3253 51.5412C23.2946 51.4625 23.2757 51.3793 23.2305 51.2286C23.3675 51.3173 23.4501 51.3622 23.5234 51.4194C24.5786 52.2397 25.7153 52.9234 26.9392 53.4606C28.4937 54.143 30.1141 54.5751 31.805 54.7365C35.2512 55.0658 38.4723 54.3667 41.4925 52.67C43.0728 51.7825 44.7673 51.2058 46.5783 50.9794C52.9162 50.1873 59.2459 53.9547 61.213 60.5192C62.2248 63.8959 61.8978 67.1807 60.3725 70.3514C60.175 70.7622 59.9645 71.1669 59.7579 71.5731C59.6309 71.8229 59.4716 72.0484 59.2659 72.2428C56.0424 75.2946 52.5282 77.9609 48.7009 80.2118C48.5605 80.295 48.4174 80.3734 48.2929 80.4439Z" fill="#00C4B3"/>
</g>
</svg>
