<svg width="21" height="21" viewBox="0 0 21 21" fill="none" xmlns="http://www.w3.org/2000/svg">
<path d="M16.9993 12.0056C16.4212 12.0036 15.8497 12.1278 15.3246 12.3696C14.7995 12.6114 14.3336 12.9649 13.9593 13.4055L8.4193 10.7957C8.4717 10.5322 8.49852 10.2642 8.49938 9.9956C8.49853 9.73029 8.4717 9.46569 8.4193 9.2056L13.9593 6.5956C14.5687 7.30726 15.4089 7.78196 16.333 7.93665C17.257 8.09135 18.206 7.91618 19.014 7.4418C19.8219 6.96741 20.4373 6.22403 20.7525 5.34172C21.0676 4.45942 21.0625 3.49438 20.738 2.61547C20.4135 1.73655 19.7902 0.999748 18.9773 0.533969C18.1644 0.068191 17.2135 -0.0968938 16.2912 0.0676011C15.3688 0.232096 14.5337 0.715694 13.9319 1.43378C13.3301 2.15186 13 3.05869 12.9993 3.9956C13.0002 4.26424 13.027 4.53217 13.0794 4.79565L7.53938 7.40551C7.00879 6.78446 6.30058 6.34098 5.51018 6.13482C4.71979 5.92866 3.88519 5.96974 3.11886 6.25252C2.35253 6.5353 1.69129 7.04619 1.22426 7.71634C0.757224 8.3865 0.506836 9.18371 0.506836 10.0005C0.506836 10.8174 0.757224 11.6146 1.22426 12.2848C1.69129 12.9549 2.35253 13.4658 3.11886 13.7486C3.88519 14.0314 4.71979 14.0724 5.51018 13.8663C6.30058 13.6601 7.00879 13.2166 7.53938 12.5956L13.0794 15.2056C13.027 15.4657 13.0001 15.7303 12.9993 15.9956C12.9973 16.7871 13.2302 17.5615 13.6686 18.2206C14.1069 18.8797 14.7309 19.3939 15.4616 19.6982C16.1924 20.0025 16.9969 20.0831 17.7735 19.9299C18.5501 19.7767 19.2638 19.3966 19.8242 18.8375C20.3846 18.2785 20.7665 17.5658 20.9217 16.7896C21.0768 16.0134 20.9982 15.2087 20.6958 14.4772C20.3933 13.7457 19.8806 13.1204 19.2226 12.6804C18.5646 12.2404 17.7908 12.0056 16.9993 12.0056V12.0056ZM16.9993 2.00561C17.3939 2.0066 17.7793 2.12457 18.1068 2.34461C18.4343 2.56465 18.6893 2.87686 18.8393 3.24178C18.9894 3.60669 19.0279 4.00792 18.95 4.39472C18.872 4.78151 18.6811 5.13651 18.4014 5.41482C18.1217 5.69312 17.7658 5.88223 17.3786 5.95824C16.9914 6.03425 16.5904 5.99374 16.2262 5.84183C15.8621 5.68992 15.5511 5.43343 15.3327 5.10481C15.1143 4.77619 14.9983 4.39018 14.9993 3.99561C15.0012 3.46669 15.2128 2.96011 15.5878 2.58704C15.9627 2.21397 16.4704 2.00487 16.9993 2.00561ZM4.4993 11.9956C4.10515 11.9946 3.72013 11.8769 3.39282 11.6573C3.06551 11.4377 2.81058 11.1261 2.66021 10.7618C2.50983 10.3974 2.47075 9.99671 2.54788 9.61019C2.62502 9.22366 2.81492 8.86865 3.09363 8.58994C3.37233 8.31124 3.72735 8.12133 4.11387 8.0442C4.5004 7.96706 4.90111 8.00615 5.26544 8.15652C5.62978 8.3069 5.9414 8.56183 6.161 8.88914C6.38059 9.21644 6.49831 9.60147 6.4993 9.99561C6.49938 10.2583 6.4477 10.5184 6.34722 10.7611C6.24674 11.0038 6.09942 11.2243 5.91369 11.41C5.72795 11.5957 5.50744 11.743 5.26476 11.8435C5.02207 11.944 4.76196 11.9957 4.4993 11.9956V11.9956ZM16.9993 17.9956C16.6052 17.9946 16.2201 17.8769 15.8928 17.6573C15.5655 17.4377 15.3106 17.1261 15.1602 16.7618C15.0098 16.3974 14.9707 15.9967 15.0479 15.6102C15.125 15.2237 15.3149 14.8686 15.5936 14.5899C15.8723 14.3112 16.2273 14.1213 16.6139 14.0442C17.0004 13.9671 17.4011 14.0061 17.7654 14.1565C18.1298 14.3069 18.4414 14.5618 18.661 14.8891C18.8806 15.2164 18.9983 15.6015 18.9993 15.9956C18.9994 16.2583 18.9477 16.5184 18.8472 16.7611C18.7467 17.0038 18.5994 17.2243 18.4137 17.41C18.228 17.5957 18.0074 17.743 17.7648 17.8435C17.5221 17.944 17.262 17.9957 16.9993 17.9956V17.9956Z" fill="#F0B90B"/>
</svg>
